<svg width="916" height="124" viewBox="0 0 916 124" fill="none" xmlns="http://www.w3.org/2000/svg">
<path d="M321.516 68.9486L329.617 81.2187C334.734 88.961 331.697 98.8631 322.844 103.331C320.023 104.751 316.832 105.5 313.583 105.5H302.667V117.062L276.208 100.875L302.667 84.6875V96.25H313.578C314.97 96.25 316.34 95.9262 317.547 95.3204C321.346 93.4056 322.643 89.1599 320.457 85.8437L312.35 73.5736L321.516 68.9486ZM256.65 55.2447L259.455 83.3647L248.004 77.5835L242.548 85.8437C241.849 86.8982 241.484 88.0961 241.484 89.3125C241.484 93.142 245.035 96.25 249.422 96.25H265.625V105.5H249.422C239.193 105.5 230.901 98.2526 230.901 89.3125C230.901 86.4727 231.758 83.6792 233.383 81.2187L238.833 72.9539L227.382 67.1772L256.645 55.2447H256.65ZM290.76 26.7316C293.576 28.1515 295.914 30.1957 297.539 32.6562L302.989 40.9119L314.451 35.1306L311.647 63.2552L282.373 51.3227L293.83 45.5415L288.374 37.2812C287.675 36.2267 286.675 35.3526 285.469 34.7421C281.675 32.8274 276.817 33.9651 274.626 37.2812L266.519 49.5514L257.354 44.9264L265.466 32.6562C270.578 24.914 281.907 22.2592 290.766 26.7316H290.76Z" fill="#161619"/>
<path d="M8.80682 97V24.2727H52.6989V32.0852H17.6136V56.6591H50.4261V64.4716H17.6136V89.1875H53.267V97H8.80682ZM73.6861 42.4545L86.7543 64.7557L99.8224 42.4545H109.482L91.8679 69.7273L109.482 97H99.8224L86.7543 75.8352L73.6861 97H64.027L81.3565 69.7273L64.027 42.4545H73.6861ZM141.353 98.1364C136.239 98.1364 131.836 96.929 128.143 94.5142C124.45 92.0994 121.609 88.7732 119.62 84.5355C117.631 80.2978 116.637 75.4564 116.637 70.0114C116.637 64.4716 117.655 59.5829 119.691 55.3452C121.751 51.0838 124.615 47.7576 128.285 45.3665C131.978 42.9517 136.287 41.7443 141.211 41.7443C145.046 41.7443 148.503 42.4545 151.58 43.875C154.658 45.2955 157.179 47.2841 159.144 49.8409C161.109 52.3977 162.328 55.3807 162.802 58.7898H154.421C153.782 56.304 152.362 54.1023 150.16 52.1847C147.982 50.2434 145.046 49.2727 141.353 49.2727C138.086 49.2727 135.221 50.125 132.759 51.8295C130.321 53.5104 128.415 55.8897 127.042 58.9673C125.692 62.0213 125.018 65.608 125.018 69.7273C125.018 73.9413 125.681 77.6108 127.006 80.7358C128.356 83.8608 130.25 86.2874 132.688 88.0156C135.15 89.7438 138.039 90.608 141.353 90.608C143.531 90.608 145.508 90.2292 147.283 89.4716C149.059 88.714 150.562 87.625 151.793 86.2045C153.024 84.7841 153.9 83.0795 154.421 81.0909H162.802C162.328 84.3106 161.156 87.2107 159.286 89.7912C157.44 92.348 154.989 94.384 151.935 95.8991C148.905 97.3906 145.378 98.1364 141.353 98.1364ZM183.434 64.1875V97H175.053V24.2727H183.434V50.9773H184.144C185.423 48.16 187.34 45.9228 189.897 44.2656C192.478 42.5848 195.91 41.7443 200.195 41.7443C203.912 41.7443 207.167 42.4901 209.961 43.9815C212.754 45.4493 214.921 47.7102 216.46 50.7642C218.022 53.7945 218.803 57.6534 218.803 62.3409V97H210.423V62.9091C210.423 58.5767 209.298 55.2268 207.049 52.8594C204.824 50.4683 201.734 49.2727 197.781 49.2727C195.034 49.2727 192.572 49.8527 190.394 51.0128C188.24 52.1728 186.535 53.8655 185.281 56.0909C184.049 58.3163 183.434 61.0152 183.434 64.1875ZM355.016 64.1875V97H346.635V42.4545H354.732V50.9773H355.442C356.721 48.2074 358.662 45.982 361.266 44.3011C363.87 42.5966 367.232 41.7443 371.351 41.7443C375.044 41.7443 378.276 42.5019 381.046 44.017C383.816 45.5085 385.97 47.7812 387.509 50.8352C389.048 53.8655 389.817 57.7008 389.817 62.3409V97H381.436V62.9091C381.436 58.6241 380.324 55.286 378.098 52.8949C375.873 50.4801 372.819 49.2727 368.936 49.2727C366.261 49.2727 363.87 49.8527 361.763 51.0128C359.68 52.1728 358.034 53.8655 356.827 56.0909C355.62 58.3163 355.016 61.0152 355.016 64.1875ZM427.148 118.591C423.1 118.591 419.62 118.07 416.708 117.028C413.796 116.01 411.37 114.661 409.428 112.98C407.511 111.323 405.984 109.547 404.847 107.653L411.523 102.966C412.281 103.96 413.24 105.097 414.4 106.375C415.56 107.677 417.146 108.802 419.158 109.749C421.194 110.719 423.858 111.205 427.148 111.205C431.552 111.205 435.186 110.139 438.05 108.009C440.915 105.878 442.347 102.54 442.347 97.9943V86.9148H441.637C441.022 87.9091 440.146 89.1402 439.009 90.608C437.897 92.0521 436.287 93.3423 434.18 94.4787C432.096 95.5914 429.279 96.1477 425.728 96.1477C421.325 96.1477 417.371 95.1061 413.867 93.0227C410.387 90.9394 407.629 87.9091 405.593 83.9318C403.581 79.9545 402.575 75.125 402.575 69.4432C402.575 63.8561 403.557 58.991 405.522 54.848C407.487 50.6813 410.221 47.4616 413.725 45.1889C417.229 42.8925 421.277 41.7443 425.87 41.7443C429.421 41.7443 432.238 42.3362 434.322 43.5199C436.429 44.6799 438.039 46.0057 439.151 47.4972C440.288 48.965 441.164 50.1723 441.779 51.1193H442.631V42.4545H450.728V98.5625C450.728 103.25 449.663 107.062 447.532 109.997C445.425 112.956 442.584 115.123 439.009 116.496C435.458 117.893 431.504 118.591 427.148 118.591ZM426.864 88.6193C430.226 88.6193 433.067 87.8499 435.387 86.3111C437.707 84.7723 439.471 82.5587 440.678 79.6705C441.886 76.7822 442.489 73.3258 442.489 69.3011C442.489 65.3712 441.897 61.9029 440.714 58.8963C439.53 55.8897 437.778 53.5341 435.458 51.8295C433.138 50.125 430.273 49.2727 426.864 49.2727C423.313 49.2727 420.354 50.1723 417.987 51.9716C415.643 53.7708 413.879 56.1856 412.695 59.2159C411.535 62.2462 410.955 65.608 410.955 69.3011C410.955 73.089 411.547 76.4389 412.731 79.3509C413.938 82.2391 415.714 84.5118 418.058 86.169C420.425 87.8026 423.361 88.6193 426.864 88.6193ZM488.938 98.1364C483.683 98.1364 479.149 96.9763 475.337 94.6562C471.549 92.3125 468.626 89.0455 466.566 84.8551C464.53 80.6411 463.512 75.7405 463.512 70.1534C463.512 64.5663 464.53 59.642 466.566 55.3807C468.626 51.0956 471.49 47.7576 475.16 45.3665C478.853 42.9517 483.162 41.7443 488.086 41.7443C490.927 41.7443 493.732 42.2178 496.502 43.1648C499.272 44.1117 501.793 45.6506 504.066 47.7812C506.339 49.8883 508.15 52.6818 509.499 56.1619C510.849 59.642 511.523 63.9271 511.523 69.017V72.5682H469.478V65.3239H503.001C503.001 62.2462 502.385 59.5 501.154 57.0852C499.947 54.6705 498.219 52.7647 495.969 51.3679C493.744 49.9711 491.116 49.2727 488.086 49.2727C484.748 49.2727 481.86 50.1013 479.421 51.7585C477.006 53.392 475.148 55.5227 473.846 58.1506C472.544 60.7784 471.893 63.5956 471.893 66.6023V71.4318C471.893 75.5511 472.603 79.0431 474.023 81.9077C475.468 84.7486 477.468 86.9148 480.025 88.4062C482.582 89.8741 485.553 90.608 488.938 90.608C491.14 90.608 493.129 90.3002 494.904 89.6847C496.703 89.0455 498.254 88.0985 499.556 86.8438C500.858 85.5653 501.864 83.9792 502.575 82.0852L510.671 84.358C509.819 87.1042 508.387 89.5189 506.374 91.6023C504.362 93.6619 501.876 95.2718 498.917 96.4318C495.958 97.5682 492.631 98.1364 488.938 98.1364ZM525.408 24.2727H535.92L560.636 84.642H561.488L586.204 24.2727H596.715V97H588.477V41.7443H587.766L565.039 97H557.085L534.357 41.7443H533.647V97H525.408V24.2727ZM636.106 98.1364C630.85 98.1364 626.317 96.9763 622.505 94.6562C618.717 92.3125 615.794 89.0455 613.734 84.8551C611.698 80.6411 610.68 75.7405 610.68 70.1534C610.68 64.5663 611.698 59.642 613.734 55.3807C615.794 51.0956 618.658 47.7576 622.328 45.3665C626.021 42.9517 630.33 41.7443 635.254 41.7443C638.095 41.7443 640.9 42.2178 643.67 43.1648C646.44 44.1117 648.961 45.6506 651.234 47.7812C653.507 49.8883 655.318 52.6818 656.667 56.1619C658.017 59.642 658.691 63.9271 658.691 69.017V72.5682H616.646V65.3239H650.169C650.169 62.2462 649.553 59.5 648.322 57.0852C647.115 54.6705 645.386 52.7647 643.137 51.3679C640.912 49.9711 638.284 49.2727 635.254 49.2727C631.916 49.2727 629.028 50.1013 626.589 51.7585C624.174 53.392 622.316 55.5227 621.014 58.1506C619.712 60.7784 619.061 63.5956 619.061 66.6023V71.4318C619.061 75.5511 619.771 79.0431 621.191 81.9077C622.636 84.7486 624.636 86.9148 627.193 88.4062C629.75 89.8741 632.721 90.608 636.106 90.608C638.308 90.608 640.297 90.3002 642.072 89.6847C643.871 89.0455 645.422 88.0985 646.724 86.8438C648.026 85.5653 649.032 83.9792 649.743 82.0852L657.839 84.358C656.987 87.1042 655.555 89.5189 653.542 91.6023C651.53 93.6619 649.044 95.2718 646.085 96.4318C643.126 97.5682 639.799 98.1364 636.106 98.1364Z" fill="#161619"/>
<path d="M8.80682 97H5.80682V100H8.80682V97ZM8.80682 24.2727V21.2727H5.80682V24.2727H8.80682ZM52.6989 24.2727H55.6989V21.2727H52.6989V24.2727ZM52.6989 32.0852V35.0852H55.6989V32.0852H52.6989ZM17.6136 32.0852V29.0852H14.6136V32.0852H17.6136ZM17.6136 56.6591H14.6136V59.6591H17.6136V56.6591ZM50.4261 56.6591H53.4261V53.6591H50.4261V56.6591ZM50.4261 64.4716V67.4716H53.4261V64.4716H50.4261ZM17.6136 64.4716V61.4716H14.6136V64.4716H17.6136ZM17.6136 89.1875H14.6136V92.1875H17.6136V89.1875ZM53.267 89.1875H56.267V86.1875H53.267V89.1875ZM53.267 97V100H56.267V97H53.267ZM11.8068 97V24.2727H5.80682V97H11.8068ZM8.80682 27.2727H52.6989V21.2727H8.80682V27.2727ZM49.6989 24.2727V32.0852H55.6989V24.2727H49.6989ZM52.6989 29.0852H17.6136V35.0852H52.6989V29.0852ZM14.6136 32.0852V56.6591H20.6136V32.0852H14.6136ZM17.6136 59.6591H50.4261V53.6591H17.6136V59.6591ZM47.4261 56.6591V64.4716H53.4261V56.6591H47.4261ZM50.4261 61.4716H17.6136V67.4716H50.4261V61.4716ZM14.6136 64.4716V89.1875H20.6136V64.4716H14.6136ZM17.6136 92.1875H53.267V86.1875H17.6136V92.1875ZM50.267 89.1875V97H56.267V89.1875H50.267ZM53.267 94H8.80682V100H53.267V94ZM73.6861 42.4545L76.2744 40.9378L75.4052 39.4545H73.6861V42.4545ZM86.7543 64.7557L84.1659 66.2724L86.7543 70.6895L89.3426 66.2724L86.7543 64.7557ZM99.8224 42.4545V39.4545H98.1033L97.2341 40.9378L99.8224 42.4545ZM109.482 42.4545L112.002 44.0821L114.99 39.4545H109.482V42.4545ZM91.8679 69.7273L89.3478 68.0997L88.2966 69.7273L89.3478 71.3548L91.8679 69.7273ZM109.482 97V100H114.99L112.002 95.3724L109.482 97ZM99.8224 97L97.2698 98.5761L98.149 100H99.8224V97ZM86.7543 75.8352L89.3069 74.2591L86.7543 70.125L84.2016 74.2591L86.7543 75.8352ZM73.6861 97V100H75.3595L76.2387 98.5761L73.6861 97ZM64.027 97L61.4949 95.3911L58.5663 100H64.027V97ZM81.3565 69.7273L83.8886 71.3362L84.9109 69.7273L83.8886 68.1184L81.3565 69.7273ZM64.027 42.4545V39.4545H58.5663L61.4949 44.0635L64.027 42.4545ZM71.0977 43.9713L84.1659 66.2724L89.3426 63.2389L76.2744 40.9378L71.0977 43.9713ZM89.3426 66.2724L102.411 43.9713L97.2341 40.9378L84.1659 63.2389L89.3426 66.2724ZM99.8224 45.4545H109.482V39.4545H99.8224V45.4545ZM106.961 40.827L89.3478 68.0997L94.388 71.3548L112.002 44.0821L106.961 40.827ZM89.3478 71.3548L106.961 98.6276L112.002 95.3724L94.388 68.0997L89.3478 71.3548ZM109.482 94H99.8224V100H109.482V94ZM102.375 95.4239L89.3069 74.2591L84.2016 77.4113L97.2698 98.5761L102.375 95.4239ZM84.2016 74.2591L71.1335 95.4239L76.2387 98.5761L89.3069 77.4113L84.2016 74.2591ZM73.6861 94H64.027V100H73.6861V94ZM66.5591 98.6089L83.8886 71.3362L78.8245 68.1184L61.4949 95.3911L66.5591 98.6089ZM83.8886 68.1184L66.5591 40.8456L61.4949 44.0635L78.8245 71.3362L83.8886 68.1184ZM64.027 45.4545H73.6861V39.4545H64.027V45.4545ZM128.143 94.5142L126.501 97.0251L126.501 97.0251L128.143 94.5142ZM119.691 55.3452L116.99 54.0397L116.987 54.046L119.691 55.3452ZM128.285 45.3665L129.923 47.88L129.927 47.8774L128.285 45.3665ZM159.144 49.8409L161.523 48.0128L161.523 48.0128L159.144 49.8409ZM162.802 58.7898V61.7898H166.247L165.773 58.3771L162.802 58.7898ZM154.421 58.7898L151.516 59.5369L152.095 61.7898H154.421V58.7898ZM150.16 52.1847L148.164 54.4242L148.177 54.4356L148.189 54.4469L150.16 52.1847ZM132.759 51.8295L134.462 54.2996L134.467 54.2961L132.759 51.8295ZM127.042 58.9673L124.302 57.745L124.298 57.7548L127.042 58.9673ZM127.006 80.7358L124.245 81.9074L124.248 81.9163L124.252 81.9251L127.006 80.7358ZM132.688 88.0156L130.953 90.4633L130.965 90.4711L132.688 88.0156ZM147.283 89.4716L146.106 86.7123L146.106 86.7123L147.283 89.4716ZM151.793 86.2045L154.06 88.1693L154.06 88.1693L151.793 86.2045ZM154.421 81.0909V78.0909H152.106L151.519 80.3308L154.421 81.0909ZM162.802 81.0909L165.77 81.5274L166.275 78.0909H162.802V81.0909ZM159.286 89.7912L156.857 88.0307L156.854 88.0347L159.286 89.7912ZM151.935 95.8991L153.26 98.5908L153.269 98.5866L151.935 95.8991ZM141.353 95.1364C136.728 95.1364 132.916 94.0507 129.785 92.0033L126.501 97.0251C130.756 99.8072 135.751 101.136 141.353 101.136V95.1364ZM129.785 92.0033C126.586 89.9119 124.103 87.0269 122.336 83.261L116.904 85.81C119.114 90.5195 122.313 94.287 126.501 97.0251L129.785 92.0033ZM122.336 83.261C120.563 79.4822 119.637 75.0874 119.637 70.0114H113.637C113.637 75.8254 114.7 81.1134 116.904 85.81L122.336 83.261ZM119.637 70.0114C119.637 64.8417 120.586 60.4105 122.395 56.6443L116.987 54.046C114.724 58.7552 113.637 64.1014 113.637 70.0114H119.637ZM122.392 56.6507C124.234 52.8402 126.748 49.9488 129.923 47.88L126.647 42.853C122.483 45.5664 119.268 49.3274 116.99 54.0397L122.392 56.6507ZM129.927 47.8774C133.076 45.818 136.8 44.7443 141.211 44.7443V38.7443C135.774 38.7443 130.88 40.0854 126.643 42.8556L129.927 47.8774ZM141.211 44.7443C144.669 44.7443 147.688 45.3829 150.323 46.5989L152.837 41.1511C149.317 39.5262 145.423 38.7443 141.211 38.7443V44.7443ZM150.323 46.5989C152.983 47.8266 155.112 49.5169 156.765 51.669L161.523 48.0128C159.247 45.0512 156.333 42.7643 152.837 41.1511L150.323 46.5989ZM156.765 51.669C158.392 53.7856 159.423 56.2727 159.83 59.2025L165.773 58.3771C165.233 54.4887 163.826 51.0099 161.523 48.0128L156.765 51.669ZM162.802 55.7898H154.421V61.7898H162.802V55.7898ZM157.327 58.0426C156.516 54.8903 154.725 52.182 152.13 49.9224L148.189 54.4469C149.998 56.0225 151.048 57.7176 151.516 59.5369L157.327 58.0426ZM152.156 49.9451C149.294 47.3943 145.58 46.2727 141.353 46.2727V52.2727C144.512 52.2727 146.67 53.0924 148.164 54.4242L152.156 49.9451ZM141.353 46.2727C137.534 46.2727 134.061 47.2794 131.052 49.363L134.467 54.2961C136.381 52.9706 138.638 52.2727 141.353 52.2727V46.2727ZM131.057 49.3595C128.104 51.3945 125.868 54.235 124.302 57.745L129.782 60.1897C130.962 57.5443 132.537 55.6263 134.462 54.2996L131.057 49.3595ZM124.298 57.7548C122.745 61.269 122.018 65.2854 122.018 69.7273H128.018C128.018 65.9305 128.64 62.7736 129.786 60.1798L124.298 57.7548ZM122.018 69.7273C122.018 74.2497 122.729 78.334 124.245 81.9074L129.768 79.5641C128.633 76.8876 128.018 73.6329 128.018 69.7273H122.018ZM124.252 81.9251C125.789 85.4834 128.007 88.3747 130.953 90.4632L134.423 85.568C132.493 84.2001 130.923 82.2382 129.761 79.5465L124.252 81.9251ZM130.965 90.4711C133.983 92.5897 137.488 93.608 141.353 93.608V87.608C138.59 87.608 136.318 86.898 134.412 85.5601L130.965 90.4711ZM141.353 93.608C143.884 93.608 146.268 93.1664 148.461 92.2309L146.106 86.7123C144.748 87.2919 143.178 87.608 141.353 87.608V93.608ZM148.461 92.2309C150.643 91.2996 152.523 89.9434 154.06 88.1693L149.526 84.2398C148.602 85.3066 147.474 86.1284 146.106 86.7123L148.461 92.2309ZM154.06 88.1693C155.62 86.3697 156.697 84.2422 157.323 81.851L151.519 80.3308C151.104 81.9169 150.429 83.1985 149.526 84.2398L154.06 88.1693ZM154.421 84.0909H162.802V78.0909H154.421V84.0909ZM159.834 80.6544C159.429 83.4063 158.437 85.8501 156.857 88.0307L161.715 91.5517C163.875 88.5713 165.228 85.2149 165.77 81.5274L159.834 80.6544ZM156.854 88.0347C155.316 90.1651 153.256 91.8951 150.602 93.2117L153.269 98.5866C156.723 96.8729 159.564 94.5309 161.718 91.5477L156.854 88.0347ZM150.611 93.2075C148.064 94.4608 145.005 95.1364 141.353 95.1364V101.136C145.75 101.136 149.746 100.32 153.26 98.5908L150.611 93.2075ZM183.434 97V100H186.434V97H183.434ZM175.053 97H172.053V100H175.053V97ZM175.053 24.2727V21.2727H172.053V24.2727H175.053ZM183.434 24.2727H186.434V21.2727H183.434V24.2727ZM183.434 50.9773H180.434V53.9773H183.434V50.9773ZM184.144 50.9773V53.9773H186.077L186.876 52.217L184.144 50.9773ZM189.897 44.2656L191.529 46.7831L191.534 46.7794L189.897 44.2656ZM209.961 43.9815L208.548 46.628L208.557 46.6326L208.566 46.6373L209.961 43.9815ZM216.46 50.7642L213.78 52.1141L213.787 52.1266L213.793 52.1391L216.46 50.7642ZM218.803 97V100H221.803V97H218.803ZM210.423 97H207.423V100H210.423V97ZM207.049 52.8594L204.853 54.9032L204.863 54.9145L204.874 54.9256L207.049 52.8594ZM190.394 51.0128L188.984 48.3649L188.972 48.3714L190.394 51.0128ZM185.281 56.0909L182.667 54.6175L182.661 54.6281L182.655 54.6387L185.281 56.0909ZM180.434 64.1875V97H186.434V64.1875H180.434ZM183.434 94H175.053V100H183.434V94ZM178.053 97V24.2727H172.053V97H178.053ZM175.053 27.2727H183.434V21.2727H175.053V27.2727ZM180.434 24.2727V50.9773H186.434V24.2727H180.434ZM183.434 53.9773H184.144V47.9773H183.434V53.9773ZM186.876 52.217C187.921 49.9136 189.461 48.1233 191.529 46.7831L188.265 41.7482C185.219 43.7224 182.924 46.4065 181.412 49.7376L186.876 52.217ZM191.534 46.7794C193.472 45.5173 196.273 44.7443 200.195 44.7443V38.7443C195.548 38.7443 191.483 39.6522 188.26 41.7519L191.534 46.7794ZM200.195 44.7443C203.505 44.7443 206.259 45.4059 208.548 46.628L211.374 41.3351C208.076 39.5742 204.319 38.7443 200.195 38.7443V44.7443ZM208.566 46.6373C210.759 47.7896 212.498 49.5693 213.78 52.1141L219.139 49.4143C217.343 45.8511 214.75 43.1091 211.356 41.3258L208.566 46.6373ZM213.793 52.1391C215.07 54.6153 215.803 57.9618 215.803 62.3409H221.803C221.803 57.345 220.974 52.9737 219.126 49.3893L213.793 52.1391ZM215.803 62.3409V97H221.803V62.3409H215.803ZM218.803 94H210.423V100H218.803V94ZM213.423 97V62.9091H207.423V97H213.423ZM213.423 62.9091C213.423 58.0657 212.157 53.8806 209.224 50.7931L204.874 54.9256C206.439 56.573 207.423 59.0877 207.423 62.9091H213.423ZM209.245 50.8155C206.335 47.6887 202.378 46.2727 197.781 46.2727V52.2727C201.09 52.2727 203.312 53.2478 204.853 54.9032L209.245 50.8155ZM197.781 46.2727C194.599 46.2727 191.643 46.9485 188.984 48.3649L191.804 53.6606C193.501 52.757 195.47 52.2727 197.781 52.2727V46.2727ZM188.972 48.3714C186.295 49.8125 184.188 51.9209 182.667 54.6175L187.894 57.5643C188.883 55.8101 190.184 54.5331 191.816 53.6542L188.972 48.3714ZM182.655 54.6387C181.125 57.4057 180.434 60.631 180.434 64.1875H186.434C186.434 61.3993 186.974 59.2269 187.906 57.5431L182.655 54.6387ZM355.016 97V100H358.016V97H355.016ZM346.635 97H343.635V100H346.635V97ZM346.635 42.4545V39.4545H343.635V42.4545H346.635ZM354.732 42.4545H357.732V39.4545H354.732V42.4545ZM354.732 50.9773H351.732V53.9773H354.732V50.9773ZM355.442 50.9773V53.9773H357.362L358.166 52.2344L355.442 50.9773ZM361.266 44.3011L362.893 46.8217L362.901 46.8165L362.909 46.8112L361.266 44.3011ZM381.046 44.017L379.606 46.649L379.615 46.6538L379.624 46.6585L381.046 44.017ZM387.509 50.8352L384.83 52.1852L384.834 52.1936L387.509 50.8352ZM389.817 97V100H392.817V97H389.817ZM381.436 97H378.436V100H381.436V97ZM378.098 52.8949L375.892 54.9279L375.897 54.9333L375.902 54.9387L378.098 52.8949ZM361.763 51.0128L360.316 48.3848L360.31 48.3882L360.304 48.3917L361.763 51.0128ZM356.827 56.0909L354.19 54.6602L354.19 54.6602L356.827 56.0909ZM352.016 64.1875V97H358.016V64.1875H352.016ZM355.016 94H346.635V100H355.016V94ZM349.635 97V42.4545H343.635V97H349.635ZM346.635 45.4545H354.732V39.4545H346.635V45.4545ZM351.732 42.4545V50.9773H357.732V42.4545H351.732ZM354.732 53.9773H355.442V47.9773H354.732V53.9773ZM358.166 52.2344C359.202 49.9899 360.759 48.1992 362.893 46.8217L359.639 41.7806C356.565 43.7648 354.239 46.4249 352.718 49.7201L358.166 52.2344ZM362.909 46.8112C364.89 45.5146 367.63 44.7443 371.351 44.7443V38.7443C366.833 38.7443 362.85 39.6786 359.623 41.791L362.909 46.8112ZM371.351 44.7443C374.627 44.7443 377.347 45.4134 379.606 46.649L382.486 41.3851C379.205 39.5904 375.462 38.7443 371.351 38.7443V44.7443ZM379.624 46.6585C381.805 47.8329 383.542 49.6301 384.83 52.1852L390.188 49.4853C388.398 45.9324 385.827 43.1842 382.468 41.3756L379.624 46.6585ZM384.834 52.1936C386.096 54.678 386.817 58.0091 386.817 62.3409H392.817C392.817 57.3924 392 53.0531 390.184 49.4769L384.834 52.1936ZM386.817 62.3409V97H392.817V62.3409H386.817ZM389.817 94H381.436V100H389.817V94ZM384.436 97V62.9091H378.436V97H384.436ZM384.436 62.9091C384.436 58.1087 383.181 53.9528 380.294 50.851L375.902 54.9387C377.466 56.6192 378.436 59.1394 378.436 62.9091H384.436ZM380.304 50.8618C377.407 47.7181 373.491 46.2727 368.936 46.2727V52.2727C372.147 52.2727 374.339 53.2421 375.892 54.9279L380.304 50.8618ZM368.936 46.2727C365.813 46.2727 362.915 46.9542 360.316 48.3848L363.21 53.6408C364.826 52.7513 366.709 52.2727 368.936 52.2727V46.2727ZM360.304 48.3917C357.692 49.8462 355.652 51.9667 354.19 54.6602L359.464 57.5216C360.417 55.7643 361.668 54.4995 363.223 53.6338L360.304 48.3917ZM354.19 54.6602C352.692 57.4224 352.016 60.6396 352.016 64.1875H358.016C358.016 61.3907 358.548 59.2102 359.464 57.5216L354.19 54.6602ZM416.708 117.028L417.719 114.204L417.708 114.2L417.698 114.196L416.708 117.028ZM409.428 112.98L411.392 110.712L411.39 110.71L409.428 112.98ZM404.847 107.653L403.123 105.198L400.838 106.803L402.275 109.197L404.847 107.653ZM411.523 102.966L413.91 101.148L412.161 98.8526L409.8 100.511L411.523 102.966ZM414.4 106.375L416.64 104.379L416.631 104.369L416.622 104.359L414.4 106.375ZM419.158 109.749L420.449 107.041L420.443 107.037L420.436 107.034L419.158 109.749ZM438.05 108.009L439.841 110.416L439.841 110.416L438.05 108.009ZM442.347 86.9148H445.347V83.9148H442.347V86.9148ZM441.637 86.9148V83.9148H439.966L439.086 85.3357L441.637 86.9148ZM439.009 90.608L436.637 88.7714L436.633 88.7769L439.009 90.608ZM434.18 94.4787L435.593 97.1249L435.604 97.1192L434.18 94.4787ZM413.867 93.0227L412.326 95.5968L412.334 95.6013L413.867 93.0227ZM405.593 83.9318L402.916 85.2862L402.919 85.2925L402.923 85.2988L405.593 83.9318ZM405.522 54.848L408.233 56.1336L408.235 56.1276L405.522 54.848ZM413.725 45.1889L415.358 47.7058L415.364 47.7019L415.37 47.698L413.725 45.1889ZM434.322 43.5199L432.84 46.1283L432.857 46.1382L432.875 46.1479L434.322 43.5199ZM439.151 47.4972L436.747 49.291L436.763 49.3125L436.779 49.3337L439.151 47.4972ZM441.779 51.1193L439.264 52.7543L440.151 54.1193H441.779V51.1193ZM442.631 51.1193V54.1193H445.631V51.1193H442.631ZM442.631 42.4545V39.4545H439.631V42.4545H442.631ZM450.728 42.4545H453.728V39.4545H450.728V42.4545ZM447.532 109.997L445.104 108.235L445.096 108.246L445.088 108.257L447.532 109.997ZM439.009 116.496L437.934 113.695L437.922 113.7L437.911 113.704L439.009 116.496ZM435.387 86.3111L433.729 83.811L433.729 83.811L435.387 86.3111ZM440.678 79.6705L443.446 80.8275L443.446 80.8275L440.678 79.6705ZM440.714 58.8963L443.505 57.7973L443.505 57.7973L440.714 58.8963ZM435.458 51.8295L433.682 54.2472L433.682 54.2472L435.458 51.8295ZM417.987 51.9716L416.171 49.5831L416.165 49.5875L416.16 49.5919L417.987 51.9716ZM412.695 59.2159L409.901 58.1244L409.897 58.1339L409.894 58.1434L412.695 59.2159ZM412.731 79.3509L409.952 80.4806L409.957 80.4943L409.963 80.5079L412.731 79.3509ZM418.058 86.169L416.326 88.6186L416.34 88.6285L416.354 88.6383L418.058 86.169ZM427.148 115.591C423.344 115.591 420.223 115.1 417.719 114.204L415.698 119.853C419.017 121.04 422.856 121.591 427.148 121.591V115.591ZM417.698 114.196C415.073 113.279 412.996 112.101 411.392 110.712L407.465 115.248C409.743 117.221 412.519 118.742 415.718 119.86L417.698 114.196ZM411.39 110.71C409.678 109.231 408.37 107.694 407.42 106.11L402.275 109.197C403.597 111.401 405.343 113.415 407.467 115.25L411.39 110.71ZM406.571 110.109L413.247 105.421L409.8 100.511L403.123 105.198L406.571 110.109ZM409.137 104.784C409.962 105.867 410.98 107.071 412.178 108.391L416.622 104.359C415.499 103.122 414.6 102.054 413.91 101.148L409.137 104.784ZM412.16 108.371C413.652 110.046 415.599 111.389 417.881 112.463L420.436 107.034C418.693 106.214 417.468 105.309 416.64 104.379L412.16 108.371ZM417.867 112.457C420.448 113.687 423.6 114.205 427.148 114.205V108.205C424.115 108.205 421.941 107.751 420.449 107.041L417.867 112.457ZM427.148 114.205C432.044 114.205 436.348 113.014 439.841 110.416L436.26 105.601C434.024 107.265 431.06 108.205 427.148 108.205V114.205ZM439.841 110.416C443.67 107.568 445.347 103.202 445.347 97.9943H439.347C439.347 101.877 438.16 104.188 436.26 105.601L439.841 110.416ZM445.347 97.9943V86.9148H439.347V97.9943H445.347ZM442.347 83.9148H441.637V89.9148H442.347V83.9148ZM439.086 85.3357C438.548 86.2053 437.742 87.3444 436.637 88.7714L441.381 92.4445C442.549 90.9359 443.495 89.6129 444.188 88.4938L439.086 85.3357ZM436.633 88.7769C435.844 89.8003 434.603 90.8421 432.756 91.8382L435.604 97.1192C437.971 95.8426 439.949 94.3038 441.386 92.439L436.633 88.7769ZM432.766 91.8325C431.282 92.625 429.014 93.1477 425.728 93.1477V99.1477C429.544 99.1477 432.91 98.5577 435.593 97.1249L432.766 91.8325ZM425.728 93.1477C421.819 93.1477 418.403 92.2296 415.4 90.4441L412.334 95.6013C416.339 97.9825 420.83 99.1477 425.728 99.1477V93.1477ZM415.408 90.4487C412.458 88.6829 410.07 86.0945 408.263 82.5648L402.923 85.2988C405.188 89.7237 408.316 93.1959 412.326 95.5967L415.408 90.4487ZM408.27 82.5774C406.52 79.1193 405.575 74.78 405.575 69.4432H399.575C399.575 75.47 400.641 80.7898 402.916 85.2862L408.27 82.5774ZM405.575 69.4432C405.575 64.2054 406.495 59.7967 408.233 56.1336L402.811 53.5624C400.619 58.1853 399.575 63.5067 399.575 69.4432H405.575ZM408.235 56.1276C409.988 52.4122 412.37 49.6439 415.358 47.7058L412.093 42.672C408.073 45.2794 404.986 48.9505 402.809 53.5684L408.235 56.1276ZM415.37 47.698C418.338 45.7526 421.803 44.7443 425.87 44.7443V38.7443C420.752 38.7443 416.12 40.0325 412.081 42.6798L415.37 47.698ZM425.87 44.7443C429.134 44.7443 431.375 45.2958 432.84 46.1283L435.804 40.9115C433.102 39.3765 429.708 38.7443 425.87 38.7443V44.7443ZM432.875 46.1479C434.712 47.1595 435.953 48.2276 436.747 49.291L441.556 45.7033C440.124 43.7837 438.145 42.2004 435.769 40.8919L432.875 46.1479ZM436.779 49.3337C437.893 50.7719 438.712 51.906 439.264 52.7543L444.294 49.4843C443.615 48.4387 442.683 47.158 441.523 45.6606L436.779 49.3337ZM441.779 54.1193H442.631V48.1193H441.779V54.1193ZM445.631 51.1193V42.4545H439.631V51.1193H445.631ZM442.631 45.4545H450.728V39.4545H442.631V45.4545ZM447.728 42.4545V98.5625H453.728V42.4545H447.728ZM447.728 98.5625C447.728 102.802 446.767 105.943 445.104 108.235L449.96 111.759C452.558 108.18 453.728 103.698 453.728 98.5625H447.728ZM445.088 108.257C443.342 110.709 440.989 112.521 437.934 113.695L440.085 119.296C444.179 117.724 447.508 115.203 449.976 111.737L445.088 108.257ZM437.911 113.704C434.756 114.945 431.181 115.591 427.148 115.591V121.591C431.828 121.591 436.161 120.84 440.107 119.288L437.911 113.704ZM426.864 91.6193C430.692 91.6193 434.14 90.7384 437.045 88.8111L433.729 83.811C431.994 84.9615 429.76 85.6193 426.864 85.6193V91.6193ZM437.045 88.8111C439.92 86.9044 442.039 84.1928 443.446 80.8275L437.91 78.5134C436.902 80.9246 435.494 82.6401 433.729 83.811L437.045 88.8111ZM443.446 80.8275C444.844 77.4843 445.489 73.6144 445.489 69.3011H439.489C439.489 73.0371 438.928 76.0801 437.91 78.5134L443.446 80.8275ZM445.489 69.3011C445.489 65.0741 444.853 61.2207 443.505 57.7973L437.922 59.9953C438.942 62.5852 439.489 65.6683 439.489 69.3011H445.489ZM443.505 57.7973C442.14 54.3305 440.065 51.4913 437.234 49.4119L433.682 54.2472C435.492 55.5769 436.92 57.4488 437.922 59.9953L443.505 57.7973ZM437.234 49.4119C434.31 47.2631 430.791 46.2727 426.864 46.2727V52.2727C429.756 52.2727 431.967 52.9869 433.682 54.2472L437.234 49.4119ZM426.864 46.2727C422.789 46.2727 419.156 47.3144 416.171 49.5831L419.802 54.3601C421.551 53.0303 423.837 52.2727 426.864 52.2727V46.2727ZM416.16 49.5919C413.339 51.7574 411.263 54.6376 409.901 58.1244L415.49 60.3075C416.495 57.7336 417.947 55.7843 419.813 54.3512L416.16 49.5919ZM409.894 58.1434C408.586 61.56 407.955 65.2915 407.955 69.3011H413.955C413.955 65.9244 414.485 62.9324 415.497 60.2884L409.894 58.1434ZM407.955 69.3011C407.955 73.3988 408.596 77.1444 409.952 80.4806L415.51 78.2211C414.499 75.7334 413.955 72.7792 413.955 69.3011H407.955ZM409.963 80.5079C411.367 83.8669 413.481 86.607 416.326 88.6186L419.79 83.7195C417.947 82.4166 416.509 80.6114 415.499 78.1938L409.963 80.5079ZM416.354 88.6383C419.323 90.6867 422.887 91.6193 426.864 91.6193V85.6193C423.835 85.6193 421.527 84.9184 419.761 83.6998L416.354 88.6383ZM475.337 94.6562L473.759 97.2074L473.768 97.2131L473.778 97.2188L475.337 94.6562ZM466.566 84.8551L463.865 86.1602L463.869 86.1694L463.874 86.1785L466.566 84.8551ZM466.566 55.3807L463.862 54.081L463.859 54.0874L466.566 55.3807ZM475.16 45.3665L476.798 47.88L476.802 47.8774L475.16 45.3665ZM496.502 43.1648L497.473 40.3261L497.473 40.3261L496.502 43.1648ZM504.066 47.7812L502.014 49.9699L502.02 49.9756L502.026 49.9813L504.066 47.7812ZM509.499 56.1619L512.296 55.0773L512.296 55.0773L509.499 56.1619ZM511.523 72.5682V75.5682H514.523V72.5682H511.523ZM469.478 72.5682H466.478V75.5682H469.478V72.5682ZM469.478 65.3239V62.3239H466.478V65.3239H469.478ZM503.001 65.3239V68.3239H506.001V65.3239H503.001ZM501.154 57.0852L498.471 58.4269L498.476 58.4373L498.481 58.4478L501.154 57.0852ZM495.969 51.3679L494.375 53.9088L494.381 53.9126L494.387 53.9164L495.969 51.3679ZM479.421 51.7585L481.102 54.2434L481.107 54.2397L479.421 51.7585ZM473.846 58.1506L471.158 56.8186L471.158 56.8186L473.846 58.1506ZM474.023 81.9077L471.336 83.2404L471.342 83.2538L471.349 83.2671L474.023 81.9077ZM480.025 88.4062L478.513 90.9976L478.522 91.0028L478.531 91.008L480.025 88.4062ZM494.904 89.6847L495.887 92.5192L495.898 92.5154L495.908 92.5116L494.904 89.6847ZM499.556 86.8438L501.638 89.004L501.648 88.9943L501.658 88.9844L499.556 86.8438ZM502.575 82.0852L503.385 79.1969L500.733 78.4523L499.766 81.0319L502.575 82.0852ZM510.671 84.358L513.536 85.2472L514.45 82.3028L511.482 81.4696L510.671 84.358ZM506.374 91.6023L508.52 93.6988L508.526 93.6927L508.532 93.6865L506.374 91.6023ZM498.917 96.4318L499.992 99.2324L500.002 99.2287L500.012 99.2249L498.917 96.4318ZM488.938 95.1364C484.134 95.1364 480.161 94.0802 476.897 92.0937L473.778 97.2188C478.137 99.8724 483.231 101.136 488.938 101.136V95.1364ZM476.916 92.1051C473.631 90.0725 471.082 87.2419 469.258 83.5318L463.874 86.1785C466.169 90.849 469.468 94.5525 473.759 97.2074L476.916 92.1051ZM469.267 83.55C467.462 79.8144 466.512 75.3752 466.512 70.1534H460.512C460.512 76.1059 461.598 81.4678 463.865 86.1602L469.267 83.55ZM466.512 70.1534C466.512 64.9327 467.462 60.4642 469.273 56.674L463.859 54.0874C461.598 58.8199 460.512 64.1999 460.512 70.1534H466.512ZM469.27 56.6803C471.113 52.846 473.627 49.9461 476.798 47.88L473.522 42.853C469.354 45.5691 466.138 49.3453 463.862 54.081L469.27 56.6803ZM476.802 47.8774C479.951 45.818 483.675 44.7443 488.086 44.7443V38.7443C482.649 38.7443 477.755 40.0854 473.518 42.8556L476.802 47.8774ZM488.086 44.7443C490.587 44.7443 493.065 45.16 495.532 46.0035L497.473 40.3261C494.4 39.2756 491.267 38.7443 488.086 38.7443V44.7443ZM495.532 46.0035C497.874 46.8041 500.032 48.1111 502.014 49.9699L506.118 45.5926C503.555 43.1901 500.67 41.4194 497.473 40.3261L495.532 46.0035ZM502.026 49.9813C503.904 51.7219 505.484 54.1053 506.702 57.2465L512.296 55.0773C510.816 51.2584 508.774 48.0547 506.106 45.5812L502.026 49.9813ZM506.702 57.2465C507.878 60.28 508.523 64.172 508.523 69.017H514.523C514.523 63.6822 513.819 59.0041 512.296 55.0773L506.702 57.2465ZM508.523 69.017V72.5682H514.523V69.017H508.523ZM511.523 69.5682H469.478V75.5682H511.523V69.5682ZM472.478 72.5682V65.3239H466.478V72.5682H472.478ZM469.478 68.3239H503.001V62.3239H469.478V68.3239ZM506.001 65.3239C506.001 61.8372 505.301 58.6135 503.827 55.7227L498.481 58.4478C499.47 60.3865 500.001 62.6552 500.001 65.3239H506.001ZM503.837 55.7436C502.387 52.8428 500.282 50.515 497.552 48.8194L494.387 53.9164C496.155 55.0144 497.506 56.4981 498.471 58.4269L503.837 55.7436ZM497.564 48.8269C494.791 47.0865 491.592 46.2727 488.086 46.2727V52.2727C490.64 52.2727 492.697 52.8557 494.375 53.9088L497.564 48.8269ZM488.086 46.2727C484.229 46.2727 480.735 47.2386 477.735 49.2773L481.107 54.2397C482.985 52.9641 485.267 52.2727 488.086 52.2727V46.2727ZM477.74 49.2737C474.893 51.1997 472.689 53.7288 471.158 56.8186L476.534 59.4825C477.607 57.3167 479.12 55.5843 481.102 54.2434L477.74 49.2737ZM471.158 56.8186C469.645 59.8712 468.893 63.1456 468.893 66.6023H474.893C474.893 64.0457 475.442 61.6857 476.534 59.4825L471.158 56.8186ZM468.893 66.6023V71.4318H474.893V66.6023H468.893ZM468.893 71.4318C468.893 75.8846 469.659 79.8598 471.336 83.2404L476.711 80.5749C475.547 78.2264 474.893 75.2176 474.893 71.4318H468.893ZM471.349 83.2671C473.034 86.5807 475.42 89.1933 478.513 90.9976L481.536 85.8149C479.516 84.6362 477.902 82.9165 476.698 80.5482L471.349 83.2671ZM478.531 91.008C481.606 92.7734 485.108 93.608 488.938 93.608V87.608C485.998 87.608 483.557 86.9747 481.518 85.8045L478.531 91.008ZM488.938 93.608C491.418 93.608 493.746 93.2612 495.887 92.5192L493.921 86.8502C492.511 87.3391 490.862 87.608 488.938 87.608V93.608ZM495.908 92.5116C498.087 91.7375 500.011 90.5716 501.638 89.004L497.474 84.6835C496.497 85.6254 495.32 86.3534 493.9 86.8578L495.908 92.5116ZM501.658 88.9844C503.305 87.3676 504.537 85.3974 505.384 83.1386L499.766 81.0319C499.192 82.5609 498.412 83.763 497.454 84.7031L501.658 88.9844ZM501.764 84.9736L509.86 87.2463L511.482 81.4696L503.385 79.1969L501.764 84.9736ZM507.806 83.4688C507.094 85.7634 505.905 87.7697 504.217 89.5181L508.532 93.6865C510.868 91.2682 512.544 88.445 513.536 85.2472L507.806 83.4688ZM504.228 89.5058C502.543 91.2311 500.427 92.6176 497.822 93.6387L500.012 99.2249C503.325 97.926 506.181 96.0927 508.52 93.6988L504.228 89.5058ZM497.841 93.6312C495.277 94.6159 492.323 95.1364 488.938 95.1364V101.136C492.939 101.136 496.638 100.52 499.992 99.2324L497.841 93.6312ZM525.408 24.2727V21.2727H522.408V24.2727H525.408ZM535.92 24.2727L538.696 23.1361L537.933 21.2727H535.92V24.2727ZM560.636 84.642L557.859 85.7787L558.622 87.642H560.636V84.642ZM561.488 84.642V87.642H563.501L564.264 85.7787L561.488 84.642ZM586.204 24.2727V21.2727H584.19L583.428 23.1361L586.204 24.2727ZM596.715 24.2727H599.715V21.2727H596.715V24.2727ZM596.715 97V100H599.715V97H596.715ZM588.477 97H585.477V100H588.477V97ZM588.477 41.7443H591.477V38.7443H588.477V41.7443ZM587.766 41.7443V38.7443H585.756L584.992 40.6031L587.766 41.7443ZM565.039 97V100H567.049L567.814 98.1412L565.039 97ZM557.085 97L554.31 98.1412L555.075 100H557.085V97ZM534.357 41.7443L537.132 40.6031L536.367 38.7443H534.357V41.7443ZM533.647 41.7443V38.7443H530.647V41.7443H533.647ZM533.647 97V100H536.647V97H533.647ZM525.408 97H522.408V100H525.408V97ZM525.408 27.2727H535.92V21.2727H525.408V27.2727ZM533.143 25.4094L557.859 85.7787L563.412 83.5054L538.696 23.1361L533.143 25.4094ZM560.636 87.642H561.488V81.642H560.636V87.642ZM564.264 85.7787L588.98 25.4094L583.428 23.1361L558.712 83.5054L564.264 85.7787ZM586.204 27.2727H596.715V21.2727H586.204V27.2727ZM593.715 24.2727V97H599.715V24.2727H593.715ZM596.715 94H588.477V100H596.715V94ZM591.477 97V41.7443H585.477V97H591.477ZM588.477 38.7443H587.766V44.7443H588.477V38.7443ZM584.992 40.6031L562.265 95.8588L567.814 98.1412L590.541 42.8855L584.992 40.6031ZM565.039 94H557.085V100H565.039V94ZM559.859 95.8588L537.132 40.6031L531.583 42.8855L554.31 98.1412L559.859 95.8588ZM534.357 38.7443H533.647V44.7443H534.357V38.7443ZM530.647 41.7443V97H536.647V41.7443H530.647ZM533.647 94H525.408V100H533.647V94ZM528.408 97V24.2727H522.408V97H528.408ZM622.505 94.6562L620.927 97.2074L620.936 97.2131L620.945 97.2188L622.505 94.6562ZM613.734 84.8551L611.033 86.1602L611.037 86.1694L611.042 86.1785L613.734 84.8551ZM613.734 55.3807L611.03 54.081L611.027 54.0874L613.734 55.3807ZM622.328 45.3665L623.966 47.88L623.97 47.8774L622.328 45.3665ZM643.67 43.1648L644.641 40.3261L644.641 40.3261L643.67 43.1648ZM651.234 47.7812L649.182 49.9699L649.188 49.9756L649.194 49.9813L651.234 47.7812ZM656.667 56.1619L659.464 55.0773L659.464 55.0773L656.667 56.1619ZM658.691 72.5682V75.5682H661.691V72.5682H658.691ZM616.646 72.5682H613.646V75.5682H616.646V72.5682ZM616.646 65.3239V62.3239H613.646V65.3239H616.646ZM650.169 65.3239V68.3239H653.169V65.3239H650.169ZM648.322 57.0852L645.639 58.4269L645.644 58.4373L645.649 58.4478L648.322 57.0852ZM643.137 51.3679L641.543 53.9088L641.549 53.9126L641.555 53.9164L643.137 51.3679ZM626.589 51.7585L628.27 54.2434L628.275 54.2397L626.589 51.7585ZM621.014 58.1506L618.326 56.8186L618.326 56.8186L621.014 58.1506ZM621.191 81.9077L618.504 83.2404L618.51 83.2538L618.517 83.2671L621.191 81.9077ZM627.193 88.4062L625.681 90.9976L625.69 91.0028L625.699 91.008L627.193 88.4062ZM642.072 89.6847L643.055 92.5192L643.066 92.5154L643.076 92.5116L642.072 89.6847ZM646.724 86.8438L648.806 89.004L648.816 88.9943L648.826 88.9844L646.724 86.8438ZM649.743 82.0852L650.553 79.1969L647.901 78.4523L646.934 81.0319L649.743 82.0852ZM657.839 84.358L660.704 85.2472L661.618 82.3028L658.65 81.4696L657.839 84.358ZM653.542 91.6023L655.688 93.6988L655.694 93.6927L655.7 93.6865L653.542 91.6023ZM646.085 96.4318L647.16 99.2324L647.17 99.2287L647.18 99.2249L646.085 96.4318ZM636.106 95.1364C631.302 95.1364 627.329 94.0802 624.065 92.0937L620.945 97.2188C625.305 99.8724 630.399 101.136 636.106 101.136V95.1364ZM624.084 92.1051C620.799 90.0725 618.25 87.2419 616.426 83.5318L611.042 86.1785C613.337 90.849 616.636 94.5525 620.927 97.2074L624.084 92.1051ZM616.435 83.55C614.63 79.8144 613.68 75.3752 613.68 70.1534H607.68C607.68 76.1059 608.766 81.4678 611.033 86.1602L616.435 83.55ZM613.68 70.1534C613.68 64.9327 614.63 60.4642 616.441 56.674L611.027 54.0874C608.766 58.8199 607.68 64.1999 607.68 70.1534H613.68ZM616.438 56.6803C618.281 52.846 620.795 49.9461 623.966 47.88L620.69 42.853C616.522 45.5691 613.306 49.3453 611.03 54.081L616.438 56.6803ZM623.97 47.8774C627.119 45.818 630.843 44.7443 635.254 44.7443V38.7443C629.817 38.7443 624.923 40.0854 620.686 42.8556L623.97 47.8774ZM635.254 44.7443C637.755 44.7443 640.233 45.16 642.7 46.0035L644.641 40.3261C641.568 39.2756 638.435 38.7443 635.254 38.7443V44.7443ZM642.7 46.0035C645.042 46.8041 647.199 48.1111 649.182 49.9699L653.286 45.5926C650.723 43.1901 647.838 41.4194 644.641 40.3261L642.7 46.0035ZM649.194 49.9813C651.072 51.7219 652.652 54.1053 653.87 57.2465L659.464 55.0773C657.984 51.2584 655.942 48.0547 653.274 45.5812L649.194 49.9813ZM653.87 57.2465C655.046 60.28 655.691 64.172 655.691 69.017H661.691C661.691 63.6822 660.987 59.0041 659.464 55.0773L653.87 57.2465ZM655.691 69.017V72.5682H661.691V69.017H655.691ZM658.691 69.5682H616.646V75.5682H658.691V69.5682ZM619.646 72.5682V65.3239H613.646V72.5682H619.646ZM616.646 68.3239H650.169V62.3239H616.646V68.3239ZM653.169 65.3239C653.169 61.8372 652.469 58.6135 650.995 55.7227L645.649 58.4478C646.638 60.3865 647.169 62.6552 647.169 65.3239H653.169ZM651.005 55.7436C649.555 52.8428 647.45 50.515 644.72 48.8194L641.555 53.9164C643.323 55.0144 644.674 56.4981 645.639 58.4269L651.005 55.7436ZM644.732 48.8269C641.959 47.0865 638.76 46.2727 635.254 46.2727V52.2727C637.808 52.2727 639.865 52.8557 641.543 53.9088L644.732 48.8269ZM635.254 46.2727C631.397 46.2727 627.903 47.2386 624.903 49.2773L628.275 54.2397C630.152 52.9641 632.435 52.2727 635.254 52.2727V46.2727ZM624.908 49.2737C622.061 51.1997 619.857 53.7288 618.326 56.8186L623.702 59.4825C624.775 57.3167 626.288 55.5843 628.27 54.2434L624.908 49.2737ZM618.326 56.8186C616.813 59.8712 616.061 63.1456 616.061 66.6023H622.061C622.061 64.0457 622.61 61.6857 623.702 59.4825L618.326 56.8186ZM616.061 66.6023V71.4318H622.061V66.6023H616.061ZM616.061 71.4318C616.061 75.8846 616.827 79.8598 618.504 83.2404L623.879 80.5749C622.715 78.2264 622.061 75.2176 622.061 71.4318H616.061ZM618.517 83.2671C620.202 86.5807 622.588 89.1933 625.681 90.9976L628.704 85.8149C626.684 84.6362 625.07 82.9165 623.866 80.5482L618.517 83.2671ZM625.699 91.008C628.774 92.7734 632.275 93.608 636.106 93.608V87.608C633.166 87.608 630.725 86.9747 628.686 85.8045L625.699 91.008ZM636.106 93.608C638.586 93.608 640.914 93.2612 643.055 92.5192L641.089 86.8502C639.679 87.3391 638.03 87.608 636.106 87.608V93.608ZM643.076 92.5116C645.255 91.7375 647.179 90.5716 648.806 89.004L644.642 84.6835C643.665 85.6254 642.488 86.3534 641.068 86.8578L643.076 92.5116ZM648.826 88.9844C650.473 87.3676 651.704 85.3974 652.552 83.1386L646.934 81.0319C646.36 82.5609 645.58 83.763 644.622 84.7031L648.826 88.9844ZM648.932 84.9736L657.028 87.2463L658.65 81.4696L650.553 79.1969L648.932 84.9736ZM654.974 83.4688C654.262 85.7634 653.073 87.7697 651.384 89.5181L655.7 93.6865C658.036 91.2682 659.712 88.445 660.704 85.2472L654.974 83.4688ZM651.396 89.5058C649.711 91.2311 647.595 92.6176 644.99 93.6387L647.18 99.2249C650.493 97.926 653.349 96.0927 655.688 93.6988L651.396 89.5058ZM645.009 93.6312C642.445 94.6159 639.491 95.1364 636.106 95.1364V101.136C640.107 101.136 643.806 100.52 647.16 99.2324L645.009 93.6312Z" fill="#161619" fill-opacity="0.9"/>
</svg>
