<svg width="883" height="174" viewBox="0 0 883 174" fill="none" xmlns="http://www.w3.org/2000/svg">
<path d="M15.7383 83.8567L16.1243 24.2566H8.40454V100.092C19.0129 97.7041 29.6587 96.1848 40.3792 96.1197C50.2778 96.0654 60.1765 97.27 70.1001 100.2C63.9368 95.8484 57.0637 92.647 49.73 90.5634C40.4912 87.9372 30.5054 87.069 20.2705 87.8286C17.9546 87.9914 15.9375 86.4938 15.7383 84.4862C15.7134 84.2691 15.7134 84.0629 15.7383 83.8567ZM129.019 21.1421C128.994 20.9684 128.969 20.784 128.969 20.5886C128.969 20.4041 128.982 20.2196 129.019 20.0352V7.96755C119.307 7.16449 109.296 8.09777 100.556 10.9844C92.3877 13.6866 85.3403 18.1252 80.7583 24.4845V93.2222C87.8804 89.0766 95.1643 85.6691 102.647 83.3467C111.177 80.6988 119.942 79.4399 129.019 80.0693V21.1421ZM137.424 16.9314H148.804C151.12 16.9314 153 18.5701 153 20.5886V104.867C153 106.885 151.12 108.524 148.804 108.524C148.331 108.524 147.87 108.459 147.447 108.328C135.743 105.409 124.113 103.467 112.596 103.401C101.365 103.336 90.1465 105.062 78.8782 109.392C78.1809 109.793 77.3467 110.01 76.4875 110C75.6409 110.01 74.8066 109.793 74.0969 109.392C62.8411 105.051 51.6101 103.336 40.3792 103.401C28.8618 103.467 17.2449 105.409 5.52832 108.328C5.10498 108.459 4.64429 108.524 4.17114 108.524C1.88013 108.535 0 106.896 0 104.877V20.5886C0 18.5701 1.88013 16.9314 4.19604 16.9314H16.1616L16.2363 4.7119C16.2488 2.95385 17.6682 1.49966 19.5732 1.15239C30.6174 -0.855264 44.0398 -0.356064 55.8062 3.57242C63.9368 6.28546 71.3203 10.6155 76.7117 16.8663C82.1528 11.0387 89.4243 6.84977 97.6047 4.14758C108.786 0.446996 121.685 -0.442881 133.825 1.10898C135.917 1.36943 137.411 2.94299 137.411 4.72275V16.9314H137.424ZM84.8298 99.6466C94.106 97.1072 103.37 96.0654 112.633 96.1088C123.354 96.1631 134 97.6933 144.608 100.081V24.2566H137.424V84.1823C137.424 86.2008 135.543 87.8395 133.228 87.8395C132.891 87.8395 132.568 87.8069 132.256 87.7418C123.067 86.483 114.165 87.5248 105.474 90.227C98.4763 92.4082 91.6033 95.6639 84.8298 99.6466ZM72.3662 92.5168V24.376C67.9709 17.6151 60.8613 13.0898 52.8303 10.4093C43.7285 7.37068 33.5061 6.68699 24.5911 7.79391L24.1179 80.2972C33.8423 79.9934 43.355 81.0677 52.3074 83.618C59.4294 85.6365 66.178 88.5991 72.3662 92.5168Z" fill="#FF914C"/>
<path d="M187.807 97V24.2727H231.699V32.0852H196.614V56.6591H229.426V64.4716H196.614V89.1875H232.267V97H187.807ZM252.686 42.4545L265.754 64.7557L278.822 42.4545H288.482L270.868 69.7273L288.482 97H278.822L265.754 75.8352L252.686 97H243.027L260.357 69.7273L243.027 42.4545H252.686ZM320.353 98.1364C315.239 98.1364 310.836 96.929 307.143 94.5142C303.45 92.0994 300.609 88.7732 298.62 84.5355C296.631 80.2978 295.637 75.4564 295.637 70.0114C295.637 64.4716 296.655 59.5829 298.691 55.3452C300.751 51.0838 303.615 47.7576 307.285 45.3665C310.978 42.9517 315.287 41.7443 320.211 41.7443C324.046 41.7443 327.503 42.4545 330.58 43.875C333.658 45.2955 336.179 47.2841 338.144 49.8409C340.109 52.3977 341.328 55.3807 341.802 58.7898H333.421C332.782 56.304 331.362 54.1023 329.16 52.1847C326.982 50.2434 324.046 49.2727 320.353 49.2727C317.086 49.2727 314.221 50.125 311.759 51.8295C309.321 53.5104 307.415 55.8897 306.042 58.9673C304.692 62.0213 304.018 65.608 304.018 69.7273C304.018 73.9413 304.681 77.6108 306.006 80.7358C307.356 83.8608 309.25 86.2874 311.688 88.0156C314.15 89.7438 317.039 90.608 320.353 90.608C322.531 90.608 324.508 90.2292 326.283 89.4716C328.059 88.714 329.562 87.625 330.793 86.2045C332.024 84.7841 332.9 83.0795 333.421 81.0909H341.802C341.328 84.3106 340.156 87.2107 338.286 89.7912C336.44 92.348 333.989 94.384 330.935 95.8991C327.905 97.3906 324.378 98.1364 320.353 98.1364ZM362.434 64.1875V97H354.053V24.2727H362.434V50.9773H363.144C364.423 48.16 366.34 45.9228 368.897 44.2656C371.478 42.5848 374.91 41.7443 379.195 41.7443C382.912 41.7443 386.167 42.4901 388.961 43.9815C391.754 45.4493 393.921 47.7102 395.46 50.7642C397.022 53.7945 397.803 57.6534 397.803 62.3409V97H389.423V62.9091C389.423 58.5767 388.298 55.2268 386.049 52.8594C383.824 50.4683 380.734 49.2727 376.781 49.2727C374.034 49.2727 371.572 49.8527 369.394 51.0128C367.24 52.1728 365.535 53.8655 364.281 56.0909C363.049 58.3163 362.434 61.0152 362.434 64.1875ZM429.186 98.2784C425.73 98.2784 422.593 97.6274 419.776 96.3253C416.959 94.9995 414.721 93.0938 413.064 90.608C411.407 88.0985 410.578 85.0682 410.578 81.517C410.578 78.392 411.194 75.8589 412.425 73.9176C413.656 71.9527 415.301 70.4138 417.361 69.3011C419.421 68.1884 421.694 67.3598 424.179 66.8153C426.689 66.2472 429.21 65.7973 431.743 65.4659C435.058 65.0398 437.745 64.7202 439.804 64.5071C441.888 64.2704 443.403 63.8797 444.35 63.3352C445.32 62.7907 445.806 61.8437 445.806 60.4943V60.2102C445.806 56.7064 444.847 53.9839 442.929 52.0426C441.035 50.1013 438.159 49.1307 434.3 49.1307C430.299 49.1307 427.162 50.0066 424.89 51.7585C422.617 53.5104 421.019 55.3807 420.096 57.3693L412.141 54.5284C413.561 51.214 415.455 48.6335 417.823 46.7869C420.214 44.9167 422.818 43.6146 425.635 42.8807C428.476 42.1231 431.27 41.7443 434.016 41.7443C435.768 41.7443 437.78 41.9574 440.053 42.3835C442.349 42.786 444.563 43.6264 446.694 44.9048C448.848 46.1832 450.635 48.1127 452.056 50.6932C453.476 53.2737 454.186 56.7301 454.186 61.0625V97H445.806V89.6136H445.38C444.811 90.7973 443.864 92.0639 442.539 93.4134C441.213 94.7628 439.449 95.911 437.248 96.858C435.046 97.8049 432.359 98.2784 429.186 98.2784ZM430.465 90.75C433.779 90.75 436.573 90.099 438.846 88.7969C441.142 87.4948 442.87 85.8139 444.03 83.7543C445.214 81.6946 445.806 79.5284 445.806 77.2557V69.5852C445.451 70.0114 444.669 70.402 443.462 70.7571C442.278 71.0885 440.905 71.3845 439.343 71.6449C437.804 71.8816 436.301 72.0947 434.833 72.2841C433.389 72.4498 432.217 72.5919 431.317 72.7102C429.139 72.9943 427.103 73.456 425.209 74.0952C423.339 74.7107 421.824 75.6458 420.664 76.9006C419.527 78.1316 418.959 79.8125 418.959 81.9432C418.959 84.8551 420.036 87.0568 422.191 88.5483C424.369 90.0161 427.127 90.75 430.465 90.75ZM477.864 64.1875V97H469.483V42.4545H477.58V50.9773H478.29C479.568 48.2074 481.509 45.982 484.114 44.3011C486.718 42.5966 490.08 41.7443 494.199 41.7443C497.892 41.7443 501.124 42.5019 503.893 44.017C506.663 45.5085 508.818 47.7812 510.357 50.8352C511.895 53.8655 512.665 57.7008 512.665 62.3409V97H504.284V62.9091C504.284 58.6241 503.171 55.286 500.946 52.8949C498.721 50.4801 495.667 49.2727 491.784 49.2727C489.109 49.2727 486.718 49.8527 484.611 51.0128C482.527 52.1728 480.882 53.8655 479.675 56.0909C478.467 58.3163 477.864 61.0152 477.864 64.1875ZM549.996 118.591C545.948 118.591 542.468 118.07 539.556 117.028C536.644 116.01 534.217 114.661 532.276 112.98C530.358 111.323 528.831 109.547 527.695 107.653L534.371 102.966C535.129 103.96 536.087 105.097 537.248 106.375C538.408 107.677 539.994 108.802 542.006 109.749C544.042 110.719 546.705 111.205 549.996 111.205C554.4 111.205 558.034 110.139 560.898 108.009C563.763 105.878 565.195 102.54 565.195 97.9943V86.9148H564.485C563.869 87.9091 562.993 89.1402 561.857 90.608C560.744 92.0521 559.134 93.3423 557.027 94.4787C554.944 95.5914 552.127 96.1477 548.576 96.1477C544.172 96.1477 540.219 95.1061 536.715 93.0227C533.235 90.9394 530.477 87.9091 528.441 83.9318C526.428 79.9545 525.422 75.125 525.422 69.4432C525.422 63.8561 526.405 58.991 528.37 54.848C530.335 50.6813 533.069 47.4616 536.573 45.1889C540.077 42.8925 544.125 41.7443 548.718 41.7443C552.269 41.7443 555.086 42.3362 557.169 43.5199C559.276 44.6799 560.886 46.0057 561.999 47.4972C563.135 48.965 564.011 50.1723 564.627 51.1193H565.479V42.4545H573.576V98.5625C573.576 103.25 572.51 107.062 570.38 109.997C568.273 112.956 565.432 115.123 561.857 116.496C558.306 117.893 554.352 118.591 549.996 118.591ZM549.712 88.6193C553.074 88.6193 555.915 87.8499 558.235 86.3111C560.555 84.7723 562.319 82.5587 563.526 79.6705C564.733 76.7822 565.337 73.3258 565.337 69.3011C565.337 65.3712 564.745 61.9029 563.561 58.8963C562.378 55.8897 560.626 53.5341 558.306 51.8295C555.986 50.125 553.121 49.2727 549.712 49.2727C546.161 49.2727 543.202 50.1723 540.834 51.9716C538.49 53.7708 536.727 56.1856 535.543 59.2159C534.383 62.2462 533.803 65.608 533.803 69.3011C533.803 73.089 534.395 76.4389 535.578 79.3509C536.786 82.2391 538.561 84.5118 540.905 86.169C543.273 87.8026 546.208 88.6193 549.712 88.6193ZM611.786 98.1364C606.53 98.1364 601.997 96.9763 598.185 94.6562C594.397 92.3125 591.473 89.0455 589.414 84.8551C587.378 80.6411 586.36 75.7405 586.36 70.1534C586.36 64.5663 587.378 59.642 589.414 55.3807C591.473 51.0956 594.338 47.7576 598.007 45.3665C601.701 42.9517 606.009 41.7443 610.934 41.7443C613.775 41.7443 616.58 42.2178 619.35 43.1648C622.12 44.1117 624.641 45.6506 626.914 47.7812C629.186 49.8883 630.998 52.6818 632.347 56.1619C633.696 59.642 634.371 63.9271 634.371 69.017V72.5682H592.326V65.3239H625.848C625.848 62.2462 625.233 59.5 624.002 57.0852C622.794 54.6705 621.066 52.7647 618.817 51.3679C616.592 49.9711 613.964 49.2727 610.934 49.2727C607.596 49.2727 604.707 50.1013 602.269 51.7585C599.854 53.392 597.996 55.5227 596.694 58.1506C595.391 60.7784 594.74 63.5956 594.74 66.6023V71.4318C594.74 75.5511 595.451 79.0431 596.871 81.9077C598.315 84.7486 600.316 86.9148 602.873 88.4062C605.429 89.8741 608.4 90.608 611.786 90.608C613.988 90.608 615.976 90.3002 617.752 89.6847C619.551 89.0455 621.102 88.0985 622.404 86.8438C623.706 85.5653 624.712 83.9792 625.422 82.0852L633.519 84.358C632.667 87.1042 631.234 89.5189 629.222 91.6023C627.21 93.6619 624.724 95.2718 621.765 96.4318C618.805 97.5682 615.479 98.1364 611.786 98.1364ZM648.256 24.2727H658.767L683.483 84.642H684.336L709.051 24.2727H719.563V97H711.324V41.7443H710.614L687.887 97H679.932L657.205 41.7443H656.495V97H648.256V24.2727ZM758.954 98.1364C753.698 98.1364 749.165 96.9763 745.353 94.6562C741.565 92.3125 738.641 89.0455 736.582 84.8551C734.546 80.6411 733.528 75.7405 733.528 70.1534C733.528 64.5663 734.546 59.642 736.582 55.3807C738.641 51.0956 741.506 47.7576 745.175 45.3665C748.869 42.9517 753.177 41.7443 758.102 41.7443C760.942 41.7443 763.748 42.2178 766.518 43.1648C769.288 44.1117 771.809 45.6506 774.082 47.7812C776.354 49.8883 778.165 52.6818 779.515 56.1619C780.864 59.642 781.539 63.9271 781.539 69.017V72.5682H739.494V65.3239H773.016C773.016 62.2462 772.401 59.5 771.17 57.0852C769.962 54.6705 768.234 52.7647 765.985 51.3679C763.76 49.9711 761.132 49.2727 758.102 49.2727C754.763 49.2727 751.875 50.1013 749.437 51.7585C747.022 53.392 745.164 55.5227 743.862 58.1506C742.559 60.7784 741.908 63.5956 741.908 66.6023V71.4318C741.908 75.5511 742.619 79.0431 744.039 81.9077C745.483 84.7486 747.484 86.9148 750.04 88.4062C752.597 89.8741 755.568 90.608 758.954 90.608C761.156 90.608 763.144 90.3002 764.92 89.6847C766.719 89.0455 768.27 88.0985 769.572 86.8438C770.874 85.5653 771.88 83.9792 772.59 82.0852L780.687 84.358C779.835 87.1042 778.402 89.5189 776.39 91.6023C774.378 93.6619 771.892 95.2718 768.933 96.4318C765.973 97.5682 762.647 98.1364 758.954 98.1364Z" fill="#161619"/>
<path d="M187.807 97H185.807V99H187.807V97ZM187.807 24.2727V22.2727H185.807V24.2727H187.807ZM231.699 24.2727H233.699V22.2727H231.699V24.2727ZM231.699 32.0852V34.0852H233.699V32.0852H231.699ZM196.614 32.0852V30.0852H194.614V32.0852H196.614ZM196.614 56.6591H194.614V58.6591H196.614V56.6591ZM229.426 56.6591H231.426V54.6591H229.426V56.6591ZM229.426 64.4716V66.4716H231.426V64.4716H229.426ZM196.614 64.4716V62.4716H194.614V64.4716H196.614ZM196.614 89.1875H194.614V91.1875H196.614V89.1875ZM232.267 89.1875H234.267V87.1875H232.267V89.1875ZM232.267 97V99H234.267V97H232.267ZM189.807 97V24.2727H185.807V97H189.807ZM187.807 26.2727H231.699V22.2727H187.807V26.2727ZM229.699 24.2727V32.0852H233.699V24.2727H229.699ZM231.699 30.0852H196.614V34.0852H231.699V30.0852ZM194.614 32.0852V56.6591H198.614V32.0852H194.614ZM196.614 58.6591H229.426V54.6591H196.614V58.6591ZM227.426 56.6591V64.4716H231.426V56.6591H227.426ZM229.426 62.4716H196.614V66.4716H229.426V62.4716ZM194.614 64.4716V89.1875H198.614V64.4716H194.614ZM196.614 91.1875H232.267V87.1875H196.614V91.1875ZM230.267 89.1875V97H234.267V89.1875H230.267ZM232.267 95H187.807V99H232.267V95ZM252.686 42.4545L254.412 41.4434L253.832 40.4545H252.686V42.4545ZM265.754 64.7557L264.029 65.7668L265.754 68.7115L267.48 65.7668L265.754 64.7557ZM278.822 42.4545V40.4545H277.676L277.097 41.4434L278.822 42.4545ZM288.482 42.4545L290.162 43.5396L292.154 40.4545H288.482V42.4545ZM270.868 69.7273L269.188 68.6422L268.487 69.7273L269.188 70.8123L270.868 69.7273ZM288.482 97V99H292.154L290.162 95.9149L288.482 97ZM278.822 97L277.121 98.0507L277.707 99H278.822V97ZM265.754 75.8352L267.456 74.7845L265.754 72.0284L264.053 74.7845L265.754 75.8352ZM252.686 97V99H253.802L254.388 98.0507L252.686 97ZM243.027 97L241.339 95.9274L239.387 99H243.027V97ZM260.357 69.7273L262.045 70.7999L262.726 69.7273L262.045 68.6547L260.357 69.7273ZM243.027 42.4545V40.4545H239.387L241.339 43.5272L243.027 42.4545ZM250.961 43.4657L264.029 65.7668L267.48 63.7445L254.412 41.4434L250.961 43.4657ZM267.48 65.7668L280.548 43.4657L277.097 41.4434L264.029 63.7445L267.48 65.7668ZM278.822 44.4545H288.482V40.4545H278.822V44.4545ZM286.801 41.3695L269.188 68.6422L272.548 70.8123L290.162 43.5396L286.801 41.3695ZM269.188 70.8123L286.801 98.0851L290.162 95.9149L272.548 68.6422L269.188 70.8123ZM288.482 95H278.822V99H288.482V95ZM280.524 95.9493L267.456 74.7845L264.053 76.886L277.121 98.0507L280.524 95.9493ZM264.053 74.7845L250.984 95.9493L254.388 98.0507L267.456 76.886L264.053 74.7845ZM252.686 95H243.027V99H252.686V95ZM244.715 98.0726L262.045 70.7999L258.668 68.6547L241.339 95.9274L244.715 98.0726ZM262.045 68.6547L244.715 41.3819L241.339 43.5272L258.668 70.7999L262.045 68.6547ZM243.027 44.4545H252.686V40.4545H243.027V44.4545ZM307.143 94.5142L306.048 96.1881L306.048 96.1881L307.143 94.5142ZM298.691 55.3452L296.89 54.4748L296.888 54.4791L298.691 55.3452ZM307.285 45.3665L308.377 47.0421L308.379 47.0404L307.285 45.3665ZM338.144 49.8409L339.73 48.6222L339.73 48.6222L338.144 49.8409ZM341.802 58.7898V60.7898H344.099L343.783 58.5146L341.802 58.7898ZM333.421 58.7898L331.484 59.2879L331.87 60.7898H333.421V58.7898ZM329.16 52.1847L327.829 53.6777L327.838 53.6853L327.846 53.6928L329.16 52.1847ZM311.759 51.8295L312.894 53.4762L312.898 53.4739L311.759 51.8295ZM306.042 58.9673L304.215 58.1524L304.213 58.159L306.042 58.9673ZM306.006 80.7358L304.165 81.5169L304.17 81.5287L306.006 80.7358ZM311.688 88.0156L310.532 89.6474L310.539 89.6526L311.688 88.0156ZM326.283 89.4716L325.499 87.632L325.499 87.632L326.283 89.4716ZM330.793 86.2045L332.305 87.5144L332.305 87.5144L330.793 86.2045ZM333.421 81.0909V79.0909H331.878L331.486 80.5842L333.421 81.0909ZM341.802 81.0909L343.781 81.3819L344.117 79.0909H341.802V81.0909ZM338.286 89.7912L336.667 88.6175L336.665 88.6202L338.286 89.7912ZM330.935 95.8991L331.819 97.6936L331.824 97.6908L330.935 95.8991ZM320.353 96.1364C315.565 96.1364 311.556 95.0101 308.237 92.8403L306.048 96.1881C310.116 98.8478 314.914 100.136 320.353 100.136V96.1364ZM308.237 92.8403C304.874 90.641 302.272 87.609 300.431 83.6859L296.809 85.3852C298.946 89.9374 302.025 93.5578 306.048 96.1881L308.237 92.8403ZM300.431 83.6859C298.585 79.7541 297.637 75.2104 297.637 70.0114H293.637C293.637 75.7024 294.677 80.8416 296.809 85.3852L300.431 83.6859ZM297.637 70.0114C297.637 64.7184 298.609 60.1346 300.494 56.2113L296.888 54.4791C294.701 59.0311 293.637 64.2248 293.637 70.0114H297.637ZM300.492 56.2155C302.406 52.2547 305.037 49.2184 308.377 47.0421L306.193 43.6908C302.194 46.2968 299.095 49.9129 296.89 54.4748L300.492 56.2155ZM308.379 47.0404C311.71 44.8626 315.629 43.7443 320.211 43.7443V39.7443C314.945 39.7443 310.246 41.0408 306.19 43.6925L308.379 47.0404ZM320.211 43.7443C323.795 43.7443 326.96 44.4068 329.742 45.6909L331.418 42.0591C328.045 40.5023 324.297 39.7443 320.211 39.7443V43.7443ZM329.742 45.6909C332.541 46.9829 334.801 48.7727 336.558 51.0596L339.73 48.6222C337.558 45.7955 334.774 43.608 331.418 42.0591L329.742 45.6909ZM336.558 51.0596C338.298 53.3229 339.392 55.9754 339.821 59.0649L343.783 58.5146C343.265 54.786 341.92 51.4725 339.73 48.6222L336.558 51.0596ZM341.802 56.7898H333.421V60.7898H341.802V56.7898ZM335.358 58.2917C334.605 55.3615 332.937 52.8221 330.473 50.6765L327.846 53.6928C329.786 55.3824 330.959 57.2464 331.484 59.2879L335.358 58.2917ZM330.491 50.6916C327.857 48.344 324.402 47.2727 320.353 47.2727V51.2727C323.69 51.2727 326.107 52.1427 327.829 53.6777L330.491 50.6916ZM320.353 47.2727C316.718 47.2727 313.448 48.2279 310.621 50.1852L312.898 53.4739C314.995 52.0221 317.454 51.2727 320.353 51.2727V47.2727ZM310.624 50.1829C307.843 52.0998 305.717 54.7866 304.215 58.1524L307.868 59.7822C309.113 56.9928 310.798 54.921 312.894 53.4762L310.624 50.1829ZM304.213 58.159C302.728 61.5198 302.018 65.3929 302.018 69.7273H306.018C306.018 65.823 306.657 62.5228 307.871 59.7757L304.213 58.159ZM302.018 69.7273C302.018 74.1469 302.713 78.0929 304.165 81.5169L307.848 79.9547C306.649 77.1287 306.018 73.7357 306.018 69.7273H302.018ZM304.17 81.5287C305.644 84.9425 307.754 87.6789 310.532 89.6474L312.845 86.3839C310.745 84.8959 309.067 82.7791 307.843 79.9429L304.17 81.5287ZM310.539 89.6526C313.372 91.6411 316.671 92.608 320.353 92.608V88.608C317.406 88.608 314.929 87.8466 312.837 86.3786L310.539 89.6526ZM320.353 92.608C322.766 92.608 325.015 92.1874 327.068 91.3111L325.499 87.632C324.001 88.271 322.296 88.608 320.353 88.608V92.608ZM327.068 91.3111C329.115 90.4378 330.869 89.1706 332.305 87.5144L329.282 84.8947C328.255 86.0794 327.003 86.9903 325.499 87.632L327.068 91.3111ZM332.305 87.5144C333.755 85.8411 334.765 83.8547 335.356 81.5976L331.486 80.5842C331.036 82.3044 330.294 83.727 329.282 84.8947L332.305 87.5144ZM333.421 83.0909H341.802V79.0909H333.421V83.0909ZM339.823 80.7999C339.396 83.7077 338.344 86.3037 336.667 88.6175L339.906 90.9649C341.969 88.1177 343.261 84.9135 343.781 81.3819L339.823 80.7999ZM336.665 88.6202C335.024 90.8927 332.834 92.7247 330.047 94.1075L331.824 97.6908C335.145 96.0432 337.856 93.8033 339.908 90.9622L336.665 88.6202ZM330.052 94.1047C327.344 95.4374 324.129 96.1364 320.353 96.1364V100.136C324.626 100.136 328.466 99.3438 331.819 97.6936L330.052 94.1047ZM362.434 97V99H364.434V97H362.434ZM354.053 97H352.053V99H354.053V97ZM354.053 24.2727V22.2727H352.053V24.2727H354.053ZM362.434 24.2727H364.434V22.2727H362.434V24.2727ZM362.434 50.9773H360.434V52.9773H362.434V50.9773ZM363.144 50.9773V52.9773H364.433L364.965 51.8037L363.144 50.9773ZM368.897 44.2656L369.985 45.9439L369.989 45.9415L368.897 44.2656ZM388.961 43.9815L388.019 45.7459L388.031 45.752L388.961 43.9815ZM395.46 50.7642L393.673 51.6642L393.678 51.6725L393.682 51.6808L395.46 50.7642ZM397.803 97V99H399.803V97H397.803ZM389.423 97H387.423V99H389.423V97ZM386.049 52.8594L384.585 54.2219L384.592 54.2294L384.599 54.2369L386.049 52.8594ZM369.394 51.0128L368.454 49.2475L368.446 49.2518L369.394 51.0128ZM364.281 56.0909L362.538 55.1086L362.534 55.1157L362.53 55.1228L364.281 56.0909ZM360.434 64.1875V97H364.434V64.1875H360.434ZM362.434 95H354.053V99H362.434V95ZM356.053 97V24.2727H352.053V97H356.053ZM354.053 26.2727H362.434V22.2727H354.053V26.2727ZM360.434 24.2727V50.9773H364.434V24.2727H360.434ZM362.434 52.9773H363.144V48.9773H362.434V52.9773ZM364.965 51.8037C366.088 49.3291 367.754 47.3898 369.985 45.9439L367.809 42.5873C364.926 44.4559 362.757 46.991 361.323 50.1508L364.965 51.8037ZM369.989 45.9415C372.14 44.5398 375.152 43.7443 379.195 43.7443V39.7443C374.669 39.7443 370.815 40.6297 367.805 42.5898L369.989 45.9415ZM379.195 43.7443C382.641 43.7443 385.562 44.434 388.019 45.7458L389.903 42.2172C386.773 40.5462 383.184 39.7443 379.195 39.7443V43.7443ZM388.031 45.752C390.424 47.0095 392.306 48.9496 393.673 51.6642L397.246 49.8642C395.536 46.4708 393.085 43.8892 389.891 42.211L388.031 45.752ZM393.682 51.6808C395.054 54.3417 395.803 57.859 395.803 62.3409H399.803C399.803 57.4478 398.99 53.2473 397.237 49.8476L393.682 51.6808ZM395.803 62.3409V97H399.803V62.3409H395.803ZM397.803 95H389.423V99H397.803V95ZM391.423 97V62.9091H387.423V97H391.423ZM391.423 62.9091C391.423 58.236 390.204 54.3294 387.499 51.4819L384.599 54.2369C386.392 56.1242 387.423 58.9174 387.423 62.9091H391.423ZM387.513 51.4968C384.831 48.6152 381.163 47.2727 376.781 47.2727V51.2727C380.305 51.2727 382.816 52.3213 384.585 54.2219L387.513 51.4968ZM376.781 47.2727C373.744 47.2727 370.953 47.9166 368.454 49.2475L370.334 52.778C372.191 51.7889 374.325 51.2727 376.781 51.2727V47.2727ZM368.446 49.2518C365.944 50.5993 363.97 52.5691 362.538 55.1086L366.023 57.0732C367.1 55.1619 368.536 53.7464 370.342 52.7737L368.446 49.2518ZM362.53 55.1228C361.1 57.7092 360.434 60.759 360.434 64.1875H364.434C364.434 61.2713 364.999 58.9234 366.031 57.059L362.53 55.1228ZM419.776 96.3253L418.924 98.135L418.937 98.1408L419.776 96.3253ZM413.064 90.608L411.395 91.7101L411.4 91.7174L413.064 90.608ZM412.425 73.9176L414.114 74.9887L414.12 74.9794L412.425 73.9176ZM424.179 66.8153L424.607 68.7691L424.621 68.766L424.179 66.8153ZM431.743 65.4659L431.488 63.4822L431.484 63.4828L431.743 65.4659ZM439.804 64.5071L440.01 66.4965L440.02 66.4954L440.03 66.4943L439.804 64.5071ZM444.35 63.3352L443.371 61.5909L443.362 61.5961L443.353 61.6014L444.35 63.3352ZM442.929 52.0426L441.498 53.4393L441.506 53.4481L442.929 52.0426ZM424.89 51.7585L426.111 53.3425L426.111 53.3425L424.89 51.7585ZM420.096 57.3693L419.423 59.2528L421.141 59.8665L421.91 58.2115L420.096 57.3693ZM412.141 54.5284L410.303 53.7406L409.465 55.6963L411.468 56.4119L412.141 54.5284ZM417.823 46.7869L419.053 48.3639L419.055 48.3623L417.823 46.7869ZM425.635 42.8807L426.139 44.8161L426.151 44.8132L425.635 42.8807ZM440.053 42.3835L439.684 44.3493L439.696 44.3514L439.708 44.3535L440.053 42.3835ZM446.694 44.9048L445.665 46.6198L445.673 46.6248L446.694 44.9048ZM452.056 50.6932L450.304 51.6576L450.304 51.6576L452.056 50.6932ZM454.186 97V99H456.186V97H454.186ZM445.806 97H443.806V99H445.806V97ZM445.806 89.6136H447.806V87.6136H445.806V89.6136ZM445.38 89.6136V87.6136H444.121L443.577 88.7482L445.38 89.6136ZM442.539 93.4134L443.965 94.815L443.965 94.815L442.539 93.4134ZM437.248 96.858L436.457 95.0207L437.248 96.858ZM438.846 88.7969L437.859 87.0571L437.851 87.0615L438.846 88.7969ZM444.03 83.7543L442.296 82.7577L442.292 82.7652L442.288 82.7728L444.03 83.7543ZM445.806 69.5852H447.806V64.0611L444.269 68.3049L445.806 69.5852ZM443.462 70.7571L444.001 72.683L444.014 72.6795L444.026 72.6758L443.462 70.7571ZM439.343 71.6449L439.647 73.6216L439.659 73.6197L439.671 73.6177L439.343 71.6449ZM434.833 72.2841L435.061 74.2711L435.075 74.2694L435.089 74.2676L434.833 72.2841ZM431.317 72.7102L431.576 74.6934L431.578 74.6931L431.317 72.7102ZM425.209 74.0952L425.834 75.9949L425.842 75.9926L425.849 75.9902L425.209 74.0952ZM420.664 76.9006L419.195 75.5429L419.194 75.544L420.664 76.9006ZM422.191 88.5483L421.052 90.1927L421.063 90.1998L421.073 90.2068L422.191 88.5483ZM429.186 96.2784C425.987 96.2784 423.141 95.6771 420.615 94.5098L418.937 98.1408C422.046 99.5776 425.473 100.278 429.186 100.278V96.2784ZM420.628 94.5156C418.125 93.3381 416.175 91.6682 414.728 89.4986L411.4 91.7174C413.268 94.5193 415.792 96.6609 418.924 98.1349L420.628 94.5156ZM414.733 89.5058C413.329 87.3788 412.578 84.7485 412.578 81.517H408.578C408.578 85.3878 409.486 88.8181 411.395 91.7101L414.733 89.5058ZM412.578 81.517C412.578 78.6393 413.147 76.5139 414.114 74.9887L410.736 72.8465C409.241 75.2039 408.578 78.1448 408.578 81.517H412.578ZM414.12 74.9794C415.166 73.3104 416.553 72.0108 418.312 71.0608L416.411 67.5415C414.05 68.8169 412.147 70.5949 410.73 72.8558L414.12 74.9794ZM418.312 71.0608C420.193 70.0442 422.288 69.277 424.607 68.769L423.751 64.8617C421.099 65.4427 418.648 66.3327 416.411 67.5415L418.312 71.0608ZM424.621 68.766C427.071 68.2113 429.531 67.7724 432.003 67.449L431.484 63.4828C428.889 63.8223 426.307 64.283 423.738 64.8647L424.621 68.766ZM431.998 67.4496C435.305 67.0244 437.974 66.7071 440.01 66.4965L439.599 62.5177C437.516 62.7332 434.81 63.0551 431.488 63.4822L431.998 67.4496ZM440.03 66.4943C442.181 66.2499 444.033 65.8243 445.347 65.069L443.353 61.6014C442.772 61.9351 441.594 62.2908 439.579 62.5199L440.03 66.4943ZM445.328 65.0795C447.074 64.1003 447.806 62.3853 447.806 60.4943H443.806C443.806 61.3022 443.567 61.4812 443.371 61.5909L445.328 65.0795ZM447.806 60.4943V60.2102H443.806V60.4943H447.806ZM447.806 60.2102C447.806 56.3364 446.736 53.0508 444.352 50.6371L441.506 53.4481C442.957 54.917 443.806 57.0765 443.806 60.2102H447.806ZM444.361 50.646C441.955 48.1802 438.467 47.1307 434.3 47.1307V51.1307C437.851 51.1307 440.116 52.0225 441.498 53.4393L444.361 50.646ZM434.3 47.1307C430.028 47.1307 426.406 48.0645 423.669 50.1745L426.111 53.3425C427.919 51.9488 430.57 51.1307 434.3 51.1307V47.1307ZM423.669 50.1745C421.217 52.064 419.375 54.1713 418.282 56.5271L421.91 58.2115C422.662 56.5901 424.016 54.9568 426.111 53.3425L423.669 50.1745ZM420.768 55.4858L412.814 52.6449L411.468 56.4119L419.423 59.2528L420.768 55.4858ZM413.979 55.3162C415.293 52.2499 417 49.965 419.053 48.3639L416.593 45.2099C413.911 47.302 411.829 50.1782 410.303 53.7406L413.979 55.3162ZM419.055 48.3623C421.24 46.6532 423.598 45.4781 426.139 44.8161L425.131 40.9453C422.038 41.7511 419.188 43.1801 416.591 45.2116L419.055 48.3623ZM426.151 44.8132C428.835 44.0973 431.456 43.7443 434.016 43.7443V39.7443C431.084 39.7443 428.117 40.149 425.12 40.9482L426.151 44.8132ZM434.016 43.7443C435.612 43.7443 437.497 43.9392 439.684 44.3493L440.421 40.4178C438.063 39.9756 435.923 39.7443 434.016 39.7443V43.7443ZM439.708 44.3535C441.747 44.7109 443.73 45.4592 445.665 46.6198L447.723 43.1898C445.395 41.7936 442.952 40.8611 440.398 40.4135L439.708 44.3535ZM445.673 46.6248C447.47 47.6913 449.025 49.3343 450.304 51.6576L453.808 49.7287C452.246 46.8911 450.226 44.6752 447.714 43.1849L445.673 46.6248ZM450.304 51.6576C451.503 53.8359 452.186 56.9198 452.186 61.0625H456.186C456.186 56.5404 455.45 52.7114 453.808 49.7287L450.304 51.6576ZM452.186 61.0625V97H456.186V61.0625H452.186ZM454.186 95H445.806V99H454.186V95ZM447.806 97V89.6136H443.806V97H447.806ZM445.806 87.6136H445.38V91.6136H445.806V87.6136ZM443.577 88.7482C443.135 89.6673 442.346 90.7561 441.112 92.0117L443.965 94.815C445.383 93.3717 446.487 91.9274 447.183 90.4791L443.577 88.7482ZM441.112 92.0117C440.01 93.1338 438.482 94.15 436.457 95.0207L438.038 98.6952C440.417 97.672 442.416 96.3918 443.965 94.815L441.112 92.0117ZM436.457 95.0207C434.572 95.8316 432.171 96.2784 429.186 96.2784V100.278C432.547 100.278 435.52 99.7782 438.038 98.6952L436.457 95.0207ZM430.465 92.75C434.037 92.75 437.194 92.048 439.84 90.5322L437.851 87.0615C435.951 88.1499 433.521 88.75 430.465 88.75V92.75ZM439.832 90.5367C442.407 89.0767 444.414 87.1481 445.773 84.7357L442.288 82.7728C441.326 84.4797 439.877 85.9128 437.859 87.0571L439.832 90.5367ZM445.764 84.7508C447.114 82.4022 447.806 79.8943 447.806 77.2557H443.806C443.806 79.1626 443.314 80.987 442.296 82.7577L445.764 84.7508ZM447.806 77.2557V69.5852H443.806V77.2557H447.806ZM444.269 68.3049C444.341 68.2192 444.329 68.2739 444.059 68.4089C443.809 68.5338 443.433 68.681 442.898 68.8384L444.026 72.6758C444.699 72.4781 445.316 72.2525 445.848 71.9867C446.359 71.7311 446.916 71.3773 447.342 70.8656L444.269 68.3049ZM442.923 68.8312C441.825 69.1386 440.525 69.4203 439.014 69.6721L439.671 73.6177C441.286 73.3486 442.732 73.0385 444.001 72.683L442.923 68.8312ZM439.039 69.6681C437.515 69.9025 436.028 70.1133 434.577 70.3005L435.089 74.2676C436.573 74.0761 438.093 73.8607 439.647 73.6216L439.039 69.6681ZM434.605 70.2971C433.155 70.4635 431.971 70.6069 431.056 70.7273L431.578 74.6931C432.462 74.5768 433.622 74.4362 435.061 74.2711L434.605 70.2971ZM431.058 70.727C428.763 71.0264 426.599 71.5153 424.57 72.2002L425.849 75.9902C427.607 75.3966 429.515 74.9623 431.576 74.6934L431.058 70.727ZM424.584 72.1954C422.441 72.9008 420.619 74.0031 419.195 75.5429L422.132 78.2583C423.029 77.2886 424.237 76.5206 425.834 75.9949L424.584 72.1954ZM419.194 75.544C417.631 77.2369 416.959 79.4515 416.959 81.9432H420.959C420.959 80.1735 421.423 79.0263 422.133 78.2571L419.194 75.544ZM416.959 81.9432C416.959 85.4261 418.292 88.2816 421.052 90.1927L423.329 86.9039C421.781 85.8321 420.959 84.2841 420.959 81.9432H416.959ZM421.073 90.2068C423.66 91.9506 426.836 92.75 430.465 92.75V88.75C427.417 88.75 425.077 88.0816 423.308 86.8898L421.073 90.2068ZM477.864 97V99H479.864V97H477.864ZM469.483 97H467.483V99H469.483V97ZM469.483 42.4545V40.4545H467.483V42.4545H469.483ZM477.58 42.4545H479.58V40.4545H477.58V42.4545ZM477.58 50.9773H475.58V52.9773H477.58V50.9773ZM478.29 50.9773V52.9773H479.569L480.106 51.8154L478.29 50.9773ZM484.114 44.3011L485.198 45.9815L485.209 45.9745L484.114 44.3011ZM503.893 44.017L502.934 45.7717L502.945 45.778L503.893 44.017ZM510.357 50.8352L508.57 51.7352L508.573 51.7408L510.357 50.8352ZM512.665 97V99H514.665V97H512.665ZM504.284 97H502.284V99H504.284V97ZM500.946 52.8949L499.475 54.2503L499.482 54.2575L500.946 52.8949ZM484.611 51.0128L483.646 49.2607L483.638 49.2654L484.611 51.0128ZM479.675 56.0909L477.917 55.1371L477.917 55.1371L479.675 56.0909ZM475.864 64.1875V97H479.864V64.1875H475.864ZM477.864 95H469.483V99H477.864V95ZM471.483 97V42.4545H467.483V97H471.483ZM469.483 44.4545H477.58V40.4545H469.483V44.4545ZM475.58 42.4545V50.9773H479.58V42.4545H475.58ZM477.58 52.9773H478.29V48.9773H477.58V52.9773ZM480.106 51.8154C481.222 49.3957 482.907 47.4601 485.198 45.9815L483.029 42.6208C480.112 44.5039 477.914 47.0191 476.474 50.1392L480.106 51.8154ZM485.209 45.9745C487.398 44.5419 490.345 43.7443 494.199 43.7443V39.7443C489.814 39.7443 486.038 40.6513 483.018 42.6277L485.209 45.9745ZM494.199 43.7443C497.614 43.7443 500.504 44.4429 502.934 45.7717L504.853 42.2624C501.743 40.5609 498.17 39.7443 494.199 39.7443V43.7443ZM502.945 45.778C505.323 47.0581 507.199 49.0138 508.57 51.7352L512.143 49.9353C510.436 46.5487 508.004 43.959 504.842 42.2561L502.945 45.778ZM508.573 51.7408C509.927 54.4071 510.665 57.9063 510.665 62.3409H514.665C514.665 57.4952 513.863 53.3239 512.14 49.9297L508.573 51.7408ZM510.665 62.3409V97H514.665V62.3409H510.665ZM512.665 95H504.284V99H512.665V95ZM506.284 97V62.9091H502.284V97H506.284ZM506.284 62.9091C506.284 58.2805 505.076 54.3972 502.41 51.5323L499.482 54.2575C501.266 56.1748 502.284 58.9676 502.284 62.9091H506.284ZM502.417 51.5395C499.743 48.6388 496.114 47.2727 491.784 47.2727V51.2727C495.219 51.2727 497.698 52.3214 499.475 54.2502L502.417 51.5395ZM491.784 47.2727C488.81 47.2727 486.081 47.9204 483.646 49.2608L485.575 52.7648C487.355 51.7851 489.408 51.2727 491.784 51.2727V47.2727ZM483.638 49.2654C481.202 50.6217 479.294 52.5997 477.917 55.1371L481.433 57.0447C482.471 55.1314 483.853 53.7239 485.584 52.7602L483.638 49.2654ZM477.917 55.1371C476.515 57.7203 475.864 60.7648 475.864 64.1875H479.864C479.864 61.2655 480.419 58.9122 481.433 57.0447L477.917 55.1371ZM539.556 117.028L540.229 115.145L540.223 115.143L540.216 115.14L539.556 117.028ZM532.276 112.98L533.585 111.468L533.584 111.467L532.276 112.98ZM527.695 107.653L526.546 106.017L525.022 107.086L525.98 108.682L527.695 107.653ZM534.371 102.966L535.962 101.754L534.796 100.224L533.222 101.329L534.371 102.966ZM537.248 106.375L538.741 105.045L538.735 105.038L538.729 105.031L537.248 106.375ZM542.006 109.749L542.867 107.943L542.858 107.939L542.006 109.749ZM560.898 108.009L562.092 109.613L562.092 109.613L560.898 108.009ZM565.195 86.9148H567.195V84.9148H565.195V86.9148ZM564.485 86.9148V84.9148H563.371L562.784 85.8621L564.485 86.9148ZM561.857 90.608L560.275 89.3836L560.273 89.3873L561.857 90.608ZM557.027 94.4787L557.97 96.2429L557.977 96.239L557.027 94.4787ZM536.715 93.0227L535.688 94.7387L535.693 94.7418L536.715 93.0227ZM528.441 83.9318L526.656 84.8347L526.66 84.8432L528.441 83.9318ZM528.37 54.848L530.177 55.7051L530.179 55.7011L528.37 54.848ZM536.573 45.1889L537.661 46.8669L537.669 46.8617L536.573 45.1889ZM557.169 43.5199L556.181 45.2588L556.193 45.2654L556.205 45.2719L557.169 43.5199ZM561.999 47.4972L560.396 48.6931L560.407 48.7074L560.417 48.7215L561.999 47.4972ZM564.627 51.1193L562.95 52.2093L563.541 53.1193H564.627V51.1193ZM565.479 51.1193V53.1193H567.479V51.1193H565.479ZM565.479 42.4545V40.4545H563.479V42.4545H565.479ZM573.576 42.4545H575.576V40.4545H573.576V42.4545ZM570.38 109.997L568.761 108.822L568.756 108.83L568.75 108.837L570.38 109.997ZM561.857 116.496L561.14 114.629L561.132 114.632L561.125 114.635L561.857 116.496ZM558.235 86.3111L557.129 84.6444L557.129 84.6444L558.235 86.3111ZM563.526 79.6705L565.371 80.4418L565.371 80.4418L563.526 79.6705ZM563.561 58.8963L565.422 58.1636L565.422 58.1636L563.561 58.8963ZM558.306 51.8295L557.122 53.4413L557.122 53.4413L558.306 51.8295ZM540.834 51.9716L539.624 50.3792L539.616 50.3852L540.834 51.9716ZM535.543 59.2159L533.68 58.4882L533.675 58.5009L535.543 59.2159ZM535.578 79.3509L533.726 80.104L533.729 80.1131L533.733 80.1222L535.578 79.3509ZM540.905 86.169L539.751 87.8021L539.76 87.8087L539.769 87.8152L540.905 86.169ZM549.996 116.591C546.11 116.591 542.87 116.09 540.229 115.145L538.882 118.912C542.065 120.05 545.785 120.591 549.996 120.591V116.591ZM540.216 115.14C537.495 114.189 535.301 112.954 533.585 111.468L530.967 114.492C533.133 116.368 535.792 117.831 538.896 118.916L540.216 115.14ZM533.584 111.467C531.803 109.928 530.422 108.312 529.41 106.624L525.98 108.682C527.24 110.783 528.913 112.717 530.968 114.493L533.584 111.467ZM528.844 109.29L535.52 104.603L533.222 101.329L526.546 106.017L528.844 109.29ZM532.78 104.178C533.583 105.231 534.581 106.413 535.766 107.719L538.729 105.031C537.594 103.78 536.675 102.689 535.962 101.754L532.78 104.178ZM535.754 107.705C537.136 109.256 538.963 110.527 541.154 111.558L542.858 107.939C541.025 107.076 539.679 106.098 538.741 105.045L535.754 107.705ZM541.145 111.554C543.545 112.698 546.534 113.205 549.996 113.205V109.205C546.877 109.205 544.54 108.741 542.867 107.943L541.145 111.554ZM549.996 113.205C554.727 113.205 558.808 112.056 562.092 109.613L559.704 106.404C557.259 108.223 554.072 109.205 549.996 109.205V113.205ZM562.092 109.613C565.599 107.004 567.195 102.981 567.195 97.9943H563.195C563.195 102.098 561.926 104.751 559.704 106.404L562.092 109.613ZM567.195 97.9943V86.9148H563.195V97.9943H567.195ZM565.195 84.9148H564.485V88.9148H565.195V84.9148ZM562.784 85.8621C562.22 86.7732 561.391 87.943 560.275 89.3836L563.438 91.8323C564.596 90.3373 565.518 89.0449 566.185 87.9675L562.784 85.8621ZM560.273 89.3873C559.376 90.5509 558.012 91.6755 556.078 92.7184L557.977 96.239C560.257 95.0092 562.112 93.5532 563.441 91.8286L560.273 89.3873ZM556.085 92.7145C554.401 93.6138 551.95 94.1477 548.576 94.1477V98.1477C552.303 98.1477 555.487 97.569 557.97 96.2428L556.085 92.7145ZM548.576 94.1477C544.502 94.1477 540.907 93.1884 537.737 91.3037L535.693 94.7418C539.53 97.0237 543.842 98.1477 548.576 98.1477V94.1477ZM537.742 91.3067C534.616 89.4351 532.104 86.6993 530.221 83.0205L526.66 84.8432C528.849 89.1189 531.854 92.4437 535.688 94.7387L537.742 91.3067ZM530.225 83.0289C528.388 79.3977 527.422 74.895 527.422 69.4432H523.422C523.422 75.355 524.469 80.5113 526.656 84.8347L530.225 83.0289ZM527.422 69.4432C527.422 64.0889 528.363 59.5282 530.177 55.7051L526.563 53.9909C524.446 58.4538 523.422 63.6232 523.422 69.4432H527.422ZM530.179 55.7011C532.002 51.8352 534.501 48.9165 537.661 46.8668L535.484 43.511C531.637 46.0068 528.668 49.5275 526.561 53.9949L530.179 55.7011ZM537.669 46.8617C540.816 44.7992 544.475 43.7443 548.718 43.7443V39.7443C543.774 39.7443 539.337 40.9858 535.476 43.5162L537.669 46.8617ZM548.718 43.7443C552.078 43.7443 554.51 44.3093 556.181 45.2588L558.157 41.781C555.662 40.3631 552.46 39.7443 548.718 39.7443V43.7443ZM556.205 45.2719C558.132 46.3329 559.496 47.487 560.396 48.6931L563.602 46.3012C562.276 44.5244 560.421 43.0269 558.134 41.7679L556.205 45.2719ZM560.417 48.7215C561.539 50.1696 562.377 51.3281 562.95 52.2093L566.304 50.0293C565.645 49.0166 564.732 47.7603 563.58 46.2728L560.417 48.7215ZM564.627 53.1193H565.479V49.1193H564.627V53.1193ZM567.479 51.1193V42.4545H563.479V51.1193H567.479ZM565.479 44.4545H573.576V40.4545H565.479V44.4545ZM571.576 42.4545V98.5625H575.576V42.4545H571.576ZM571.576 98.5625C571.576 102.951 570.58 106.316 568.761 108.822L571.998 111.172C574.441 107.807 575.576 103.549 575.576 98.5625H571.576ZM568.75 108.837C566.884 111.458 564.369 113.389 561.14 114.629L562.574 118.363C566.495 116.857 569.661 114.454 572.009 111.157L568.75 108.837ZM561.125 114.635C557.837 115.928 554.137 116.591 549.996 116.591V120.591C554.568 120.591 558.774 119.857 562.589 118.357L561.125 114.635ZM549.712 90.6193C553.384 90.6193 556.63 89.7755 559.34 87.9778L557.129 84.6444C555.2 85.9243 552.763 86.6193 549.712 86.6193V90.6193ZM559.34 87.9778C562.03 86.1937 564.031 83.6481 565.371 80.4418L561.681 78.8991C560.606 81.4693 559.08 83.3508 557.129 84.6444L559.34 87.9778ZM565.371 80.4418C566.705 77.2503 567.337 73.5182 567.337 69.3011H563.337C563.337 73.1333 562.761 76.3141 561.681 78.8991L565.371 80.4418ZM567.337 69.3011C567.337 65.1731 566.715 61.4481 565.422 58.1636L561.7 59.629C562.775 62.3578 563.337 65.5693 563.337 69.3011H567.337ZM565.422 58.1636C564.118 54.8502 562.15 52.1722 559.49 50.2178L557.122 53.4413C559.102 54.8959 560.638 56.9291 561.7 59.629L565.422 58.1636ZM559.49 50.2178C556.767 48.217 553.466 47.2727 549.712 47.2727V51.2727C552.776 51.2727 555.205 52.033 557.122 53.4413L559.49 50.2178ZM549.712 47.2727C545.811 47.2727 542.403 48.267 539.624 50.3793L542.044 53.5639C544 52.0777 546.51 51.2727 549.712 51.2727V47.2727ZM539.616 50.3852C536.955 52.4285 534.983 55.1536 533.68 58.4882L537.406 59.9436C538.471 57.2176 540.026 55.1131 542.052 53.558L539.616 50.3852ZM533.675 58.5009C532.417 61.7887 531.803 65.397 531.803 69.3011H535.803C535.803 65.8189 536.349 62.7037 537.411 59.9309L533.675 58.5009ZM531.803 69.3011C531.803 73.2955 532.427 76.9093 533.726 80.104L537.431 78.5977C536.363 75.9686 535.803 72.8825 535.803 69.3011H531.803ZM533.733 80.1222C535.072 83.3243 537.073 85.9086 539.751 87.8021L542.06 84.536C540.05 83.115 538.5 81.1539 537.424 78.5795L533.733 80.1222ZM539.769 87.8152C542.538 89.7253 545.892 90.6193 549.712 90.6193V86.6193C546.524 86.6193 544.008 85.8798 542.041 84.5229L539.769 87.8152ZM598.185 94.6562L597.133 96.357L597.139 96.3608L597.145 96.3646L598.185 94.6562ZM589.414 84.8551L587.613 85.7252L587.619 85.7374L589.414 84.8551ZM589.414 55.3807L587.611 54.5142L587.609 54.5185L589.414 55.3807ZM598.007 45.3665L599.099 47.0421L599.102 47.0404L598.007 45.3665ZM619.35 43.1648L619.997 41.2723L619.997 41.2723L619.35 43.1648ZM626.914 47.7812L625.546 49.2403L625.554 49.2479L626.914 47.7812ZM632.347 56.1619L634.212 55.4389L634.212 55.4389L632.347 56.1619ZM634.371 72.5682V74.5682H636.371V72.5682H634.371ZM592.326 72.5682H590.326V74.5682H592.326V72.5682ZM592.326 65.3239V63.3239H590.326V65.3239H592.326ZM625.848 65.3239V67.3239H627.848V65.3239H625.848ZM624.002 57.0852L622.213 57.9797L622.216 57.9866L622.22 57.9936L624.002 57.0852ZM618.817 51.3679L617.754 53.0619L617.762 53.0669L618.817 51.3679ZM602.269 51.7585L603.389 53.4151L603.393 53.4127L602.269 51.7585ZM596.694 58.1506L594.901 57.2626L594.901 57.2626L596.694 58.1506ZM596.871 81.9077L595.079 82.7962L595.084 82.8051L595.088 82.814L596.871 81.9077ZM602.873 88.4062L601.865 90.1338L601.877 90.1408L602.873 88.4062ZM617.752 89.6847L618.407 91.5743L618.414 91.5718L618.421 91.5693L617.752 89.6847ZM622.404 86.8438L623.792 88.2839L623.798 88.2774L623.805 88.2709L622.404 86.8438ZM625.422 82.0852L625.963 80.1596L624.194 79.6633L623.55 81.383L625.422 82.0852ZM633.519 84.358L635.429 84.9508L636.038 82.9878L634.059 82.4324L633.519 84.358ZM629.222 91.6023L630.653 93L630.66 92.9918L629.222 91.6023ZM621.765 96.4318L622.482 98.2989L622.494 98.2939L621.765 96.4318ZM611.786 96.1364C606.831 96.1364 602.671 95.0456 599.225 92.9479L597.145 96.3646C601.322 98.9071 606.229 100.136 611.786 100.136V96.1364ZM599.237 92.9555C595.785 90.8192 593.111 87.8431 591.209 83.9729L587.619 85.7374C589.836 90.2478 593.01 93.8058 597.133 96.357L599.237 92.9555ZM591.215 83.985C589.333 80.09 588.36 75.497 588.36 70.1534H584.36C584.36 75.9841 585.423 81.1922 587.613 85.7252L591.215 83.985ZM588.36 70.1534C588.36 64.8105 589.332 60.1901 591.218 56.2429L587.609 54.5185C585.423 59.094 584.36 64.322 584.36 70.1534H588.36ZM591.216 56.2471C593.132 52.2625 595.762 49.2166 599.099 47.0421L596.916 43.6908C592.914 46.2986 589.815 49.9288 587.611 54.5142L591.216 56.2471ZM599.102 47.0404C602.433 44.8626 606.351 43.7443 610.934 43.7443V39.7443C605.667 39.7443 600.969 41.0408 596.913 43.6925L599.102 47.0404ZM610.934 43.7443C613.548 43.7443 616.135 44.1793 618.703 45.0572L619.997 41.2723C617.025 40.2563 614.001 39.7443 610.934 39.7443V43.7443ZM618.703 45.0572C621.187 45.9067 623.466 47.2909 625.546 49.2403L628.282 46.3222C625.816 44.0102 623.052 42.3168 619.997 41.2723L618.703 45.0572ZM625.554 49.2479C627.563 51.1107 629.22 53.6308 630.482 56.885L634.212 55.4389C632.775 51.7329 630.81 48.6659 628.273 46.3146L625.554 49.2479ZM630.482 56.885C631.716 60.0673 632.371 64.0903 632.371 69.017H636.371C636.371 63.7638 635.677 59.2168 634.212 55.4389L630.482 56.885ZM632.371 69.017V72.5682H636.371V69.017H632.371ZM634.371 70.5682H592.326V74.5682H634.371V70.5682ZM594.326 72.5682V65.3239H590.326V72.5682H594.326ZM592.326 67.3239H625.848V63.3239H592.326V67.3239ZM627.848 65.3239C627.848 61.9735 627.176 58.909 625.784 56.1769L622.22 57.9936C623.289 60.091 623.848 62.5189 623.848 65.3239H627.848ZM625.791 56.1908C624.421 53.452 622.442 51.2649 619.872 49.6689L617.762 53.0669C619.69 54.2645 621.168 55.8889 622.213 57.9797L625.791 56.1908ZM619.88 49.6739C617.29 48.048 614.281 47.2727 610.934 47.2727V51.2727C613.647 51.2727 615.894 51.8942 617.754 53.0619L619.88 49.6739ZM610.934 47.2727C607.249 47.2727 603.957 48.1928 601.145 50.1044L603.393 53.4127C605.457 52.0098 607.942 51.2727 610.934 51.2727V47.2727ZM601.148 50.102C598.445 51.9305 596.356 54.3267 594.901 57.2626L598.486 59.0385C599.635 56.7187 601.263 54.8536 603.389 53.4151L601.148 50.102ZM594.901 57.2626C593.459 60.1736 592.74 63.2956 592.74 66.6023H596.74C596.74 63.8957 597.324 61.3832 598.486 59.0385L594.901 57.2626ZM592.74 66.6023V71.4318H596.74V66.6023H592.74ZM592.74 71.4318C592.74 75.7735 593.488 79.5876 595.079 82.7962L598.663 81.0192C597.413 78.4986 596.74 75.3288 596.74 71.4318H592.74ZM595.088 82.814C596.693 85.97 598.95 88.4338 601.865 90.1338L603.88 86.6787C601.681 85.3958 599.938 83.5272 598.654 81.0014L595.088 82.814ZM601.877 90.1408C604.779 91.8069 608.104 92.608 611.786 92.608V88.608C608.697 88.608 606.08 87.9412 603.868 86.6717L601.877 90.1408ZM611.786 92.608C614.173 92.608 616.388 92.2742 618.407 91.5743L617.097 87.795C615.564 88.3262 613.802 88.608 611.786 88.608V92.608ZM618.421 91.5693C620.474 90.8402 622.273 89.7472 623.792 88.2839L621.016 85.4036C619.93 86.4498 618.628 87.2507 617.082 87.8001L618.421 91.5693ZM623.805 88.2709C625.337 86.7669 626.493 84.9246 627.295 82.7875L623.55 81.383C622.931 83.0337 622.075 84.3638 621.003 85.4166L623.805 88.2709ZM624.882 84.0108L632.978 86.2835L634.059 82.4324L625.963 80.1596L624.882 84.0108ZM631.609 83.7652C630.85 86.2103 629.58 88.3528 627.783 90.2128L630.66 92.9918C632.888 90.6851 634.483 87.998 635.429 84.9508L631.609 83.7652ZM627.791 90.2046C625.997 92.0414 623.758 93.5023 621.035 94.5698L622.494 98.2939C625.69 97.0412 628.422 95.2825 630.653 92.9999L627.791 90.2046ZM621.048 94.5647C618.352 95.6 615.274 96.1364 611.786 96.1364V100.136C615.684 100.136 619.259 99.5363 622.482 98.2989L621.048 94.5647ZM648.256 24.2727V22.2727H646.256V24.2727H648.256ZM658.767 24.2727L660.618 23.515L660.11 22.2727H658.767V24.2727ZM683.483 84.642L681.632 85.3998L682.141 86.642H683.483V84.642ZM684.336 84.642V86.642H685.678L686.186 85.3998L684.336 84.642ZM709.051 24.2727V22.2727H707.709L707.201 23.515L709.051 24.2727ZM719.563 24.2727H721.563V22.2727H719.563V24.2727ZM719.563 97V99H721.563V97H719.563ZM711.324 97H709.324V99H711.324V97ZM711.324 41.7443H713.324V39.7443H711.324V41.7443ZM710.614 41.7443V39.7443H709.274L708.764 40.9835L710.614 41.7443ZM687.887 97V99H689.227L689.736 97.7608L687.887 97ZM679.932 97L678.083 97.7608L678.592 99H679.932V97ZM657.205 41.7443L659.055 40.9835L658.545 39.7443H657.205V41.7443ZM656.495 41.7443V39.7443H654.495V41.7443H656.495ZM656.495 97V99H658.495V97H656.495ZM648.256 97H646.256V99H648.256V97ZM648.256 26.2727H658.767V22.2727H648.256V26.2727ZM656.917 25.0305L681.632 85.3998L685.334 83.8843L660.618 23.515L656.917 25.0305ZM683.483 86.642H684.336V82.642H683.483V86.642ZM686.186 85.3998L710.902 25.0305L707.201 23.515L682.485 83.8843L686.186 85.3998ZM709.051 26.2727H719.563V22.2727H709.051V26.2727ZM717.563 24.2727V97H721.563V24.2727H717.563ZM719.563 95H711.324V99H719.563V95ZM713.324 97V41.7443H709.324V97H713.324ZM711.324 39.7443H710.614V43.7443H711.324V39.7443ZM708.764 40.9835L686.037 96.2392L689.736 97.7608L712.464 42.5051L708.764 40.9835ZM687.887 95H679.932V99H687.887V95ZM681.782 96.2392L659.055 40.9835L655.355 42.5051L678.083 97.7608L681.782 96.2392ZM657.205 39.7443H656.495V43.7443H657.205V39.7443ZM654.495 41.7443V97H658.495V41.7443H654.495ZM656.495 95H648.256V99H656.495V95ZM650.256 97V24.2727H646.256V97H650.256ZM745.353 94.6562L744.301 96.357L744.307 96.3608L744.313 96.3646L745.353 94.6562ZM736.582 84.8551L734.781 85.7252L734.787 85.7374L736.582 84.8551ZM736.582 55.3807L734.779 54.5142L734.777 54.5185L736.582 55.3807ZM745.175 45.3665L746.267 47.0421L746.27 47.0404L745.175 45.3665ZM766.518 43.1648L767.165 41.2723L767.165 41.2723L766.518 43.1648ZM774.082 47.7812L772.714 49.2403L772.722 49.2479L774.082 47.7812ZM779.515 56.1619L781.38 55.4389L781.38 55.4389L779.515 56.1619ZM781.539 72.5682V74.5682H783.539V72.5682H781.539ZM739.494 72.5682H737.494V74.5682H739.494V72.5682ZM739.494 65.3239V63.3239H737.494V65.3239H739.494ZM773.016 65.3239V67.3239H775.016V65.3239H773.016ZM771.17 57.0852L769.381 57.9797L769.384 57.9866L769.388 57.9936L771.17 57.0852ZM765.985 51.3679L764.922 53.0619L764.93 53.0669L765.985 51.3679ZM749.437 51.7585L750.557 53.4151L750.561 53.4127L749.437 51.7585ZM743.862 58.1506L742.069 57.2626L742.069 57.2626L743.862 58.1506ZM744.039 81.9077L742.247 82.7962L742.252 82.8051L742.256 82.814L744.039 81.9077ZM750.04 88.4062L749.033 90.1338L749.045 90.1408L750.04 88.4062ZM764.92 89.6847L765.575 91.5743L765.582 91.5718L765.589 91.5693L764.92 89.6847ZM769.572 86.8438L770.96 88.2839L770.966 88.2774L770.973 88.2709L769.572 86.8438ZM772.59 82.0852L773.131 80.1596L771.362 79.6633L770.718 81.383L772.59 82.0852ZM780.687 84.358L782.597 84.9508L783.206 82.9878L781.227 82.4324L780.687 84.358ZM776.39 91.6023L777.821 93L777.828 92.9918L776.39 91.6023ZM768.933 96.4318L769.65 98.2989L769.662 98.2939L768.933 96.4318ZM758.954 96.1364C753.999 96.1364 749.839 95.0456 746.393 92.9479L744.313 96.3646C748.49 98.9071 753.397 100.136 758.954 100.136V96.1364ZM746.405 92.9555C742.953 90.8192 740.279 87.8431 738.377 83.9729L734.787 85.7374C737.004 90.2478 740.177 93.8058 744.301 96.357L746.405 92.9555ZM738.383 83.985C736.501 80.09 735.528 75.497 735.528 70.1534H731.528C731.528 75.9841 732.591 81.1922 734.781 85.7252L738.383 83.985ZM735.528 70.1534C735.528 64.8105 736.5 60.1901 738.386 56.2429L734.777 54.5185C732.591 59.094 731.528 64.322 731.528 70.1534H735.528ZM738.384 56.2471C740.299 52.2625 742.93 49.2166 746.267 47.0421L744.084 43.6908C740.082 46.2986 736.983 49.9288 734.779 54.5142L738.384 56.2471ZM746.27 47.0404C749.601 44.8626 753.519 43.7443 758.102 43.7443V39.7443C752.835 39.7443 748.136 41.0408 744.081 43.6925L746.27 47.0404ZM758.102 43.7443C760.716 43.7443 763.303 44.1793 765.871 45.0572L767.165 41.2723C764.193 40.2563 761.169 39.7443 758.102 39.7443V43.7443ZM765.871 45.0572C768.355 45.9067 770.634 47.2909 772.714 49.2403L775.45 46.3222C772.984 44.0102 770.22 42.3168 767.165 41.2723L765.871 45.0572ZM772.722 49.2479C774.731 51.1107 776.388 53.6308 777.65 56.885L781.38 55.4389C779.943 51.7329 777.978 48.6659 775.441 46.3146L772.722 49.2479ZM777.65 56.885C778.884 60.0673 779.539 64.0903 779.539 69.017H783.539C783.539 63.7638 782.845 59.2168 781.38 55.4389L777.65 56.885ZM779.539 69.017V72.5682H783.539V69.017H779.539ZM781.539 70.5682H739.494V74.5682H781.539V70.5682ZM741.494 72.5682V65.3239H737.494V72.5682H741.494ZM739.494 67.3239H773.016V63.3239H739.494V67.3239ZM775.016 65.3239C775.016 61.9735 774.344 58.909 772.952 56.1769L769.388 57.9936C770.457 60.091 771.016 62.5189 771.016 65.3239H775.016ZM772.959 56.1908C771.589 53.452 769.61 51.2649 767.04 49.6689L764.93 53.0669C766.858 54.2645 768.336 55.8889 769.381 57.9797L772.959 56.1908ZM767.048 49.6739C764.458 48.048 761.449 47.2727 758.102 47.2727V51.2727C760.815 51.2727 763.062 51.8942 764.922 53.0619L767.048 49.6739ZM758.102 47.2727C754.417 47.2727 751.125 48.1928 748.313 50.1044L750.561 53.4127C752.625 52.0098 755.11 51.2727 758.102 51.2727V47.2727ZM748.316 50.102C745.613 51.9305 743.524 54.3267 742.069 57.2626L745.654 59.0385C746.803 56.7187 748.431 54.8536 750.557 53.4151L748.316 50.102ZM742.069 57.2626C740.627 60.1736 739.908 63.2956 739.908 66.6023H743.908C743.908 63.8957 744.492 61.3832 745.654 59.0385L742.069 57.2626ZM739.908 66.6023V71.4318H743.908V66.6023H739.908ZM739.908 71.4318C739.908 75.7735 740.656 79.5876 742.247 82.7962L745.831 81.0192C744.581 78.4986 743.908 75.3288 743.908 71.4318H739.908ZM742.256 82.814C743.861 85.97 746.118 88.4338 749.033 90.1338L751.048 86.6787C748.849 85.3958 747.106 83.5272 745.822 81.0014L742.256 82.814ZM749.045 90.1408C751.947 91.8069 755.272 92.608 758.954 92.608V88.608C755.865 88.608 753.247 87.9412 751.036 86.6717L749.045 90.1408ZM758.954 92.608C761.341 92.608 763.556 92.2742 765.575 91.5743L764.265 87.795C762.732 88.3262 760.97 88.608 758.954 88.608V92.608ZM765.589 91.5693C767.642 90.8402 769.441 89.7472 770.96 88.2839L768.184 85.4036C767.098 86.4498 765.796 87.2507 764.25 87.8001L765.589 91.5693ZM770.973 88.2709C772.505 86.7669 773.661 84.9246 774.463 82.7875L770.718 81.383C770.099 83.0337 769.243 84.3638 768.171 85.4166L770.973 88.2709ZM772.05 84.0108L780.146 86.2835L781.227 82.4324L773.131 80.1596L772.05 84.0108ZM778.777 83.7652C778.018 86.2103 776.748 88.3528 774.951 90.2128L777.828 92.9918C780.056 90.6851 781.651 87.998 782.597 84.9508L778.777 83.7652ZM774.959 90.2046C773.165 92.0414 770.926 93.5023 768.203 94.5698L769.662 98.2939C772.858 97.0412 775.59 95.2825 777.82 92.9999L774.959 90.2046ZM768.216 94.5647C765.52 95.6 762.442 96.1364 758.954 96.1364V100.136C762.852 100.136 766.427 99.5363 769.649 98.2989L768.216 94.5647Z" fill="#161619"/>
</svg>
